<svg width="98" height="98" viewBox="0 0 98 98" fill="none" xmlns="http://www.w3.org/2000/svg">
<g clip-path="url(#clip0_150_267)">
<path d="M49.8767 63.9723C58.6616 63.9723 65.7831 56.8508 65.7831 48.0659C65.7831 39.2811 58.6616 32.1595 49.8767 32.1595C41.0919 32.1595 33.9703 39.2811 33.9703 48.0659C33.9703 56.8508 41.0919 63.9723 49.8767 63.9723Z" fill="#E4B7BD"/>
<path d="M36.7109 67.5341L40.0267 59.0604L57.1583 56.4814L58.999 75.239L41.6832 75.6074L36.7109 67.5341Z" fill="#E4B7BD"/>
<path d="M65.9372 51.0007C65.7307 51.8278 65.3134 53.797 64.6617 53.8067C64.1293 53.8145 63.6197 45.2714 64.1516 43.8583C64.7625 42.2349 63.157 40.1813 61.9476 39.1272C59.7732 37.2318 54.9464 41.3017 50.0382 39.458C49.9081 39.4092 49.934 39.4147 48.3841 38.7964C43.615 36.8935 43.3643 36.8386 43.091 36.8114C40.7791 36.5827 37.9576 38.4746 36.8055 40.7813C35.6078 43.179 36.6085 45.2357 35.4822 51.0366C35.351 51.7128 35.1449 52.6765 34.8206 52.6907C34.2278 52.7165 33.6489 49.5502 33.4973 48.7209C32.8622 45.2463 32.2498 41.8965 33.4973 38.1347C33.6334 37.7244 34.4721 36.2015 36.1439 33.1725C38.5523 28.8088 39.7637 26.6188 40.1137 26.2253C42.6242 23.402 47.194 20.8266 51.0307 21.9247C52.9699 22.4797 52.6222 23.372 55.0005 24.2404C59.2388 25.7879 62.9224 23.8953 63.6017 25.2328C63.9616 25.9413 62.9547 26.5254 62.9401 27.8794C62.9151 30.2025 65.8532 30.8739 67.5715 33.1725C68.4953 34.4082 70.0764 34.4214 65.9372 51.0007Z" fill="#2F2E41"/>
<path d="M85.6432 81.5335C85.0021 82.2538 84.3372 82.9593 83.6482 83.6483C74.3935 92.9029 62.0882 98 49 98C37.6877 98 26.9611 94.1924 18.2829 87.1832C18.2774 87.1796 18.2737 87.1758 18.2682 87.1702C17.1169 86.242 16.0024 85.2546 14.9266 84.2119C14.9469 84.0498 14.969 83.8895 14.9929 83.731C15.144 82.6627 15.3117 81.6439 15.4995 80.7063C17.0377 73.0211 37.2769 64.9527 37.8037 64.7426C37.8111 64.7408 37.8148 64.739 37.8148 64.739C37.8148 64.739 40.4196 74.3401 51.5808 74.2167C59.1832 74.1337 57.7095 64.739 57.7095 64.739C57.7095 64.739 57.8016 64.7574 57.9748 64.7942C60.1706 65.2603 75.4159 68.6092 81.4303 73.1796C83.2632 74.5721 84.5784 77.538 85.5235 81.0747C85.564 81.2259 85.6027 81.3806 85.6432 81.5335Z" fill="#090234"/>
<path d="M12.1395 80.6862L11.841 80.9432C11.9028 81.0148 11.9649 81.0863 12.0271 81.1577C12.7695 82.0106 13.545 82.8413 14.3518 83.6483M12.1395 80.6862C12.2007 80.7573 12.2621 80.8282 12.3236 80.899C12.3237 80.8991 12.3238 80.8992 12.3239 80.8993C13.0641 81.7497 13.8322 82.5736 14.6291 83.3709L14.3518 83.6483M12.1395 80.6862C4.80607 72.1683 0.368421 61.0935 0.368421 49C0.368421 35.5923 5.82243 23.4344 14.6284 14.6284C23.4343 5.82246 35.5922 0.368421 49 0.368421C62.4078 0.368421 74.5657 5.82246 83.3716 14.6284C92.1776 23.4344 97.6316 35.5923 97.6316 49C97.6316 61.2795 93.0577 72.509 85.5234 81.0748L12.1395 80.6862ZM14.3518 83.6483L14.6292 83.371M14.3518 83.6483C14.4733 83.7697 14.5954 83.8911 14.7184 84.0111L14.9929 83.7311M14.6292 83.371L20.4673 88.8491M14.6292 83.371C14.7498 83.4916 14.871 83.6116 14.9929 83.7311M14.6292 83.371L14.9929 83.7311M14.9929 83.7311L14.7185 84.0111C14.7876 84.0786 14.857 84.1456 14.9266 84.2119C16.0024 85.2546 17.1169 86.242 18.2682 87.1703L18.2684 87.1705C18.2738 87.1759 18.2774 87.1797 18.2829 87.1832C18.9974 87.7603 19.7258 88.3157 20.4673 88.8491M20.4673 88.8491L20.6998 88.5261L20.4679 88.8495C20.4677 88.8493 20.4675 88.8492 20.4673 88.8491ZM70.4384 92.6451C74.2129 90.7845 77.7129 88.4488 80.8574 85.7133C81.7227 84.9624 82.5609 84.1808 83.3707 83.3708C84.0505 82.6908 84.7103 81.9907 85.3492 81.2718L32.2019 94.6401M70.4384 92.6451C69.1139 93.299 67.7563 93.8939 66.3674 94.4264M70.4384 92.6451L70.6151 93.0029C70.615 93.0029 70.6149 93.003 70.6149 93.003M70.4384 92.6451L70.6149 93.003M66.3674 94.4264C60.9718 96.497 55.1158 97.6316 49 97.6316C43.0979 97.6316 37.4389 96.5743 32.2019 94.6401M66.3674 94.4264L66.5081 94.7935M66.3674 94.4264L66.5082 94.7934C67.9037 94.2605 69.2738 93.6632 70.6149 93.003M32.2019 94.6401L32.0661 95.0085C32.066 95.0084 32.0659 95.0084 32.0659 95.0084L32.2019 94.6401Z" fill="#3F3D56" stroke="#A9A3A3"/>
</g>
<defs>
<clipPath id="clip0_150_267">
<rect width="98" height="98" fill="white"/>
</clipPath>
</defs>
</svg>
