<svg width="279" height="186" viewBox="0 0 279 186" fill="none" xmlns="http://www.w3.org/2000/svg">
<path d="M63.1395 94.5311C87.1197 94.5311 106.559 75.5691 106.559 52.1784C106.559 28.7876 87.1197 9.82568 63.1395 9.82568C39.1594 9.82568 19.7196 28.7876 19.7196 52.1784C19.7196 75.5691 39.1594 94.5311 63.1395 94.5311Z" fill="#E6E6E6"/>
<path d="M169.139 184.217H10.7299C5.36511 184.217 1.00027 179.853 1.00027 174.488V10.7297C1.00027 5.36438 5.36512 1.00009 10.7299 1.00009H169.139C174.504 1.00009 178.868 5.36439 178.868 10.7297V174.488C178.868 179.853 174.504 184.217 169.139 184.217Z" fill="#F5F2EA"/>
<path d="M169.139 185.217H10.7295C4.81347 185.217 0 180.404 0 174.488V10.7295C0 4.81347 4.81348 0 10.7295 0H169.139C175.055 0 179.868 4.81348 179.868 10.7295V174.488C179.868 180.404 175.055 185.217 169.139 185.217ZM10.7295 1.99997C5.91601 1.99997 2 5.91599 2 10.7295V174.488C2 179.301 5.91602 183.217 10.7295 183.217H169.139C173.952 183.217 177.868 179.301 177.868 174.488V10.7295C177.868 5.91598 173.952 1.99997 169.139 1.99997H10.7295Z" fill="#D3D3DA"/>
<path d="M96.1855 141.196H83.1295C81.5398 141.196 80.2467 140.198 80.2467 138.971V82.7597C80.2467 81.5327 81.5398 80.5345 83.1295 80.5345H96.1855C97.7752 80.5345 99.0683 81.5327 99.0683 82.7597V138.971C99.0683 140.198 97.7752 141.196 96.1855 141.196Z" fill="#D9D9D9"/>
<path d="M53.021 108.07C51.7368 108.07 50.6918 108.877 50.6918 109.868V138.908C50.6918 139.9 51.7368 140.706 53.021 140.706H66.0771C67.3613 140.706 68.4063 139.9 68.4063 138.908V109.868C68.4063 108.877 67.3613 108.07 66.0771 108.07H53.021Z" fill="#D9D9D9"/>
<path d="M126.294 141.196H113.238C111.648 141.196 110.355 140.198 110.355 138.971V46.8506C110.355 45.6236 111.648 44.6255 113.238 44.6255H126.294C127.884 44.6255 129.177 45.6236 129.177 46.8506V138.971C129.177 140.198 127.884 141.196 126.294 141.196Z" fill="#D9D9D9"/>
<path d="M72.0542 45.5794C72.0542 46.2394 72.5843 46.7694 73.2443 46.7694H277.534C278.194 46.7694 278.724 46.2394 278.724 45.5794C278.724 44.9194 278.194 44.3894 277.534 44.3894H73.2443C72.5843 44.3894 72.0542 44.9194 72.0542 45.5794Z" fill="#D3D3DA"/>
<path d="M12.0542 142.579C12.0542 143.239 12.5843 143.769 13.2443 143.769H217.534C218.194 143.769 218.724 143.239 218.724 142.579C218.724 141.919 218.194 141.389 217.534 141.389H13.2443C12.5843 141.389 12.0542 141.919 12.0542 142.579Z" fill="#D3D3DA"/>
</svg>
