<svg width="400" height="388" viewBox="0 0 400 388" fill="none" xmlns="http://www.w3.org/2000/svg">
<path opacity="0.1" d="M324.259 0.0589192C324.259 0.0589192 294.821 -2.67118 298.283 29.0366C298.283 29.0366 297.584 34.6419 300.898 37.1839C300.898 37.1839 300.951 34.8353 303.919 35.6361C304.976 35.9054 306.05 35.9847 307.119 35.8726C308.563 35.7193 309.935 34.8478 311.028 33.3897C311.028 33.3897 319.304 28.1337 322.521 7.34633C322.521 7.34633 324.902 2.81051 324.807 1.64431L319.839 4.90644C319.839 4.90644 321.538 10.415 320.189 14.9938C320.189 14.9938 320.028 5.10529 319.073 5.32026C318.881 5.36863 316.493 7.2281 316.493 7.2281C316.493 7.2281 319.412 16.821 317.21 23.7967C317.21 23.7967 318.045 11.9735 315.58 7.92137L312.084 11.0599C312.084 11.0599 315.496 20.9699 313.182 29.0581C313.182 29.0581 313.776 16.6544 311.346 11.823L308.178 15.6226C308.178 15.6226 311.384 25.3929 309.43 32.0999C309.43 32.0999 309.175 17.6594 307.493 16.5685C307.493 16.5685 304.72 20.3304 304.297 21.8674C304.297 21.8674 306.493 28.9614 305.129 32.7018C305.129 32.7018 304.293 23.082 303.608 23.0282C303.608 23.0282 300.846 29.402 300.559 33.7766C300.559 33.7766 300.678 27.2739 302.94 22.421C302.94 22.421 300.269 23.125 298.71 25.7906C298.71 25.7906 299.14 21.2816 303.622 20.8893C303.622 20.8893 305.905 16.0525 306.514 15.7569C306.514 15.7569 302.059 15.1873 299.356 17.0253C299.356 17.0253 301.734 12.7743 307.332 14.709L310.461 10.7804C310.461 10.7804 304.594 9.54975 302.105 10.9094C302.105 10.9094 304.968 7.14748 311.304 9.8937L314.717 6.78741C314.717 6.78741 309.713 5.13216 306.734 5.71257C306.734 5.71257 309.881 3.10609 315.717 5.93292L318.164 4.25079C318.164 4.25079 314.5 3.14371 313.426 2.96636C312.353 2.78901 312.297 2.33758 312.297 2.33758C314.618 1.74257 317.002 2.15003 319.182 3.51453C319.182 3.51453 324.349 0.55872 324.259 0.0589192Z" fill="#FA2300"/>
<path opacity="0.1" d="M237.857 14.0267C237.857 14.0267 224.571 12.7907 226.127 27.1237C226.127 27.1237 225.816 29.6549 227.305 30.805C227.305 30.805 227.33 29.7301 228.672 30.101C229.149 30.2243 229.634 30.2604 230.116 30.2085C230.769 30.1403 231.389 29.7458 231.882 29.0852C231.882 29.0852 235.623 26.7152 237.078 17.3211C237.078 17.3211 238.151 15.2682 238.109 14.7415L235.864 16.214C235.864 16.214 236.634 18.7077 236.029 20.7767C236.029 20.7767 235.955 16.3054 235.525 16.4129C235.438 16.4129 234.357 17.2728 234.357 17.2728C234.357 17.2728 235.679 21.6097 234.683 24.7644C234.683 24.7644 235.06 19.4224 233.945 17.5898L232.364 19.0086C232.364 19.0086 233.91 23.4853 232.861 27.1398C232.861 27.1398 233.13 21.5345 232.032 19.3526L230.602 21.0669C230.602 21.0669 232.05 25.4845 231.169 28.5156C231.169 28.5156 231.053 21.9859 230.291 21.4969C230.291 21.4969 229.039 23.1951 228.847 23.8938C228.847 23.8938 229.84 27.1183 229.225 28.7843C229.225 28.7843 228.847 24.4366 228.525 24.4204C228.525 24.4204 227.281 27.301 227.148 29.2572C227.21 27.4316 227.581 25.6625 228.225 24.1249C227.504 24.3346 226.84 24.8632 226.312 25.6458C226.312 25.6458 226.508 23.6143 228.532 23.4316C228.532 23.4316 229.581 21.2497 229.84 21.1153C229.84 21.1153 227.826 20.8574 226.606 21.6904C226.606 21.6904 227.679 19.7664 230.211 20.6424L231.609 18.8689C231.609 18.8689 228.959 18.3315 227.833 18.928C227.833 18.928 229.127 17.2298 231.99 18.4658L233.529 17.0524C233.529 17.0524 231.27 16.3 229.92 16.5741C229.92 16.5741 231.343 15.3918 233.98 16.6709L235.081 15.9131C235.081 15.9131 233.424 15.4079 232.938 15.3327C232.452 15.2574 232.427 15.0478 232.427 15.0478C233.477 14.7795 234.555 14.9655 235.539 15.5853C235.539 15.5853 237.899 14.2525 237.857 14.0267Z" fill="#FA2300"/>
<path opacity="0.1" d="M400 268.397C400.021 286.183 396.862 303.636 390.867 318.85C390.867 337.455 385.224 354.319 376.07 366.61C373.779 369.688 371.312 372.442 368.699 374.838C368.594 374.94 368.486 375.037 368.377 375.134C368.182 375.311 367.986 375.488 367.786 375.671L367.601 375.838C358.936 383.26 349.171 387.114 339.252 387.027H75.9333C57.776 387.027 41.3389 377.31 29.4298 361.607C17.5207 345.904 10.1816 324.17 10.1816 300.201C3.51285 284.418 -0.024798 265.994 -0.000239207 247.174C-0.000239207 193.894 27.7061 150.702 61.8879 150.702C63.0977 150.702 64.297 150.766 65.4893 150.868C86.9368 94.6544 135.314 55.455 191.517 55.455C226.07 55.455 257.654 70.2609 281.846 94.7242C291.01 86.7618 301.361 82.5864 311.888 82.6054C346.063 82.6054 373.776 125.798 373.776 179.078C373.771 182.449 373.654 185.817 373.426 189.17C381.664 198.133 388.379 210.01 393.004 223.799C397.629 237.588 400.028 252.884 400 268.397Z" fill="#B1B0AC"/>
<path opacity="0.1" d="M144.406 298.863C220.103 298.863 281.469 296.337 281.469 293.22C281.469 290.104 220.103 287.577 144.406 287.577C68.7078 287.577 7.34265 290.104 7.34265 293.22C7.34265 296.337 68.7078 298.863 144.406 298.863Z" fill="#6C63FF"/>
<g opacity="0.7">
<path d="M182.168 251.033H138.462V288.115H182.168V251.033Z" fill="#65617D"/>
<path opacity="0.1" d="M167.133 257.482H153.846V261.781H167.133V257.482Z" fill="black"/>
<path opacity="0.1" d="M165.472 258.019H155.507V261.244H165.472V258.019Z" fill="black"/>
<path d="M226.573 251.033H182.867V288.115H226.573V251.033Z" fill="#65617D"/>
<path opacity="0.1" d="M211.538 257.482H198.252V261.781H211.538V257.482Z" fill="black"/>
<path opacity="0.1" d="M209.878 258.019H199.913V261.244H209.878V258.019Z" fill="black"/>
<path d="M182.168 212.876H138.462V249.958H182.168V212.876Z" fill="#65617D"/>
<path opacity="0.1" d="M167.133 219.325H153.846V223.624H167.133V219.325Z" fill="black"/>
<path opacity="0.1" d="M165.472 219.862H155.507V223.087H165.472V219.862Z" fill="black"/>
<path d="M226.573 212.876H182.867V249.958H226.573V212.876Z" fill="#65617D"/>
<path opacity="0.1" d="M211.538 219.325H198.252V223.624H211.538V219.325Z" fill="black"/>
<path opacity="0.1" d="M209.878 219.862H199.913V223.087H209.878V219.862Z" fill="black"/>
<path d="M182.168 174.182H138.462V211.264H182.168V174.182Z" fill="#FA2300"/>
<path opacity="0.1" d="M167.133 180.631H153.846V184.93H167.133V180.631Z" fill="black"/>
<path opacity="0.1" d="M165.472 181.168H155.507V184.393H165.472V181.168Z" fill="black"/>
<path d="M226.573 174.182H182.867V211.264H226.573V174.182Z" fill="#65617D"/>
<path opacity="0.1" d="M211.538 180.631H198.252V184.93H211.538V180.631Z" fill="black"/>
<path opacity="0.1" d="M209.878 181.168H199.913V184.393H209.878V181.168Z" fill="black"/>
<path d="M226.573 135.488H182.867V172.57H226.573V135.488Z" fill="#FA2300"/>
<path opacity="0.1" d="M211.538 141.937H198.252V146.236H211.538V141.937Z" fill="black"/>
<path opacity="0.1" d="M209.878 142.474H199.913V145.699H209.878V142.474Z" fill="black"/>
</g>
<path d="M78.3881 383.507C86.1529 383.507 92.4475 381.871 92.4475 379.852C92.4475 377.834 86.1529 376.198 78.3881 376.198C70.6232 376.198 64.3286 377.834 64.3286 379.852C64.3286 381.871 70.6232 383.507 78.3881 383.507Z" fill="#808080"/>
<path d="M84.2029 373.876C84.8448 373.072 85.3119 371.987 85.542 370.765C85.7168 369.534 85.3742 368.077 84.6049 367.599C83.7448 367.094 82.8252 368.013 82.1294 368.937C81.4336 369.862 80.6329 370.92 79.7238 370.722C80.1923 370.067 80.5428 369.238 80.7413 368.314C80.9398 367.391 80.9796 366.404 80.8567 365.449C80.8169 365.054 80.7082 364.683 80.542 364.375C80.063 363.59 79.1994 363.923 78.6259 364.541C76.8077 366.508 76.3008 370.308 76.2903 373.72C76.1084 372.49 76.2623 371.205 76.2588 369.958C76.2553 368.712 76.028 367.271 75.3322 366.61C74.9031 366.255 74.4206 366.081 73.9336 366.105C73.1189 366.057 72.2063 366.186 71.6504 367.105C70.9511 368.244 71.1364 370.157 71.7378 371.404C72.3392 372.651 73.2588 373.452 74.1049 374.317C74.7818 374.937 75.3591 375.784 75.7938 376.794C75.8461 376.936 75.8884 377.085 75.9196 377.24H81.0455C82.1919 376.343 83.254 375.211 84.2029 373.876Z" fill="#808080"/>
<path d="M250.825 220.803C250.796 220.396 250.702 220.006 250.55 219.67C250.398 219.334 250.193 219.062 249.955 218.879C249.754 218.748 249.538 218.679 249.32 218.679C249.102 218.678 248.886 218.745 248.685 218.876C248.484 219.006 248.302 219.197 248.15 219.438C247.998 219.678 247.879 219.964 247.801 220.276L240.035 245.39L238.287 344.275H241.084L242.133 245.61L250.678 222.361C250.833 221.879 250.884 221.333 250.825 220.803Z" fill="#3F3D56"/>
<path opacity="0.1" d="M376.07 366.61C373.779 369.688 371.312 372.442 368.699 374.838C368.659 374.926 368.613 375.009 368.563 375.085C368.286 375.447 367.956 375.701 367.601 375.827C358.937 383.249 349.171 387.104 339.252 387.016H147.007C124.979 383.534 111.538 378.917 111.538 373.849C111.538 369.921 119.608 366.261 133.503 363.198C134.944 362.875 136.446 362.564 138.01 362.263C138.973 362.076 139.958 361.897 140.965 361.725L142.675 361.419C143.943 361.197 145.245 360.98 146.58 360.769H146.689L148.087 360.554C149.269 360.365 150.476 360.188 151.706 360.016L152.601 359.893L154.885 359.581C156.367 359.377 157.882 359.181 159.43 358.995C160.714 358.841 162.02 358.687 163.346 358.533C176.794 357.001 192.297 355.846 209.168 355.099L213.986 354.846L215.608 354.792L219.035 354.674L220.409 354.631L221.853 354.588L222.881 354.561L227.706 354.443L230.185 354.389H230.692C236.555 354.282 242.527 354.226 248.608 354.223C260.629 354.223 272.287 354.443 283.395 354.862C289.773 355.099 295.956 355.4 301.944 355.765H302C319.266 356.808 334.72 358.345 347.51 360.253L347.745 360.29C351.028 360.779 354.136 361.301 357.052 361.838C359.797 362.343 362.374 362.875 364.766 363.418C365.594 363.606 366.399 363.8 367.182 363.988L367.381 364.041C370.696 364.864 373.605 365.702 376.07 366.61Z" fill="#6C63FF"/>
<path d="M368.699 374.838C368.659 374.926 368.613 375.009 368.563 375.085C368.286 375.447 367.956 375.701 367.601 375.827C366.894 376.132 366.167 376.312 365.434 376.364H365.213C364.794 376.386 364.375 376.364 363.958 376.3C363.654 376.232 363.346 376.202 363.039 376.209H362.997C362.549 376.305 362.11 376.473 361.685 376.708C360.739 377.107 359.764 377.32 358.783 377.343H358.434C357.336 377.343 356.224 377.283 355.122 377.294C354.944 377.294 354.773 377.294 354.587 377.294C352.699 377.369 350.822 377.832 348.934 377.88H348.329C346.479 377.81 344.587 377.203 343.115 375.483C342.819 375.181 342.578 374.767 342.416 374.279C342.291 373.765 342.249 373.212 342.294 372.667C342.329 371.694 342.451 370.636 342.927 369.98C343.225 369.628 343.568 369.373 343.934 369.233C344.573 368.916 345.217 368.61 345.857 368.303C346.497 367.997 347.227 367.669 347.916 367.357L348.049 367.293L348.434 367.115L348.682 366.986C348.983 366.838 349.271 366.636 349.542 366.385C349.899 366.038 350.201 365.573 350.427 365.025C350.465 364.928 350.507 364.826 350.542 364.724C350.577 364.622 350.542 364.557 350.518 364.471C350.458 363.8 350.413 363.112 350.336 362.456C349.352 362.105 348.454 361.325 347.752 360.21C347.148 359.29 346.64 358.233 346.245 357.076C345.374 354.561 344.927 351.751 344.276 349.08C343.28 345.017 341.829 341.266 340.367 337.547C339.032 334.118 337.689 330.678 336.171 327.438C335.161 325.288 334.073 323.241 333.073 321.085C330.245 315.072 328.215 308.26 327.101 301.04C326.931 299.654 326.689 298.292 326.378 296.966C325.776 294.709 324.675 292.871 323.822 290.807C322.905 288.583 322.276 286.106 321.972 283.514C321.797 282.042 321.504 280.451 320.549 280.29L320.448 280.596C318.469 286.508 316.437 292.527 313.455 297.353C312.978 298.062 312.541 298.834 312.15 299.659C311.837 300.458 311.557 301.287 311.311 302.141C310.839 303.675 310.213 305.084 309.455 306.317C309.229 306.668 308.983 306.986 308.72 307.268C308.371 307.659 307.982 307.958 307.57 308.155C307.408 308.231 307.242 308.289 307.073 308.327C307.073 308.392 307.091 308.451 307.094 308.515C307.098 308.58 307.115 308.655 307.122 308.725C307.637 313.024 307.416 317.456 306.483 321.585C306.458 321.714 306.43 321.838 306.399 321.967C306.254 322.569 306.097 323.16 305.927 323.74C305.5 325.164 304.993 326.53 304.594 327.975C304.528 328.222 304.462 328.47 304.402 328.717C303.004 334.473 303.353 340.9 303.171 347.086C303.155 348.438 303.051 349.785 302.86 351.106C302.622 352.594 302.241 354.131 302.032 355.668C301.84 356.821 301.825 358.025 301.986 359.189L301.902 359.237C301.528 359.452 301.147 359.645 300.766 359.828V359.909C300.902 361.112 301.035 362.316 301.171 363.515C301.287 364.547 301.423 365.664 301.892 366.395C302.019 366.557 302.136 366.737 302.241 366.933C302.518 367.599 302.273 368.481 302.325 369.271C302.402 370.388 303.073 371.34 302.969 372.452C302.921 372.784 302.822 373.094 302.68 373.354C302.537 373.615 302.355 373.818 302.15 373.946C301.978 374.066 301.797 374.154 301.612 374.209L301.497 374.247C301.287 374.306 301.077 374.338 300.867 374.371C298.262 374.768 295.622 375.166 293.042 374.489C292.532 374.354 292.025 374.177 291.507 374.113C290.853 374.068 290.198 374.109 289.549 374.236C284.762 374.933 279.948 375.077 275.147 374.666C273.899 374.559 272.465 374.247 271.804 372.608C271.255 371.248 271.455 369.491 271.731 367.938C271.81 367.367 271.953 366.821 272.154 366.325C272.176 366.272 272.202 366.221 272.231 366.175C272.874 364.944 274.084 364.869 275.126 364.917L278.532 365.073C278.867 365.115 279.204 365.075 279.532 364.955C280.084 364.708 280.504 364.031 281.021 363.649C281.671 363.171 282.49 363.112 282.958 362.295L283.018 362.177C283.1 362.003 283.177 361.824 283.248 361.639C283.248 361.602 283.28 361.564 283.297 361.526C283.31 361.493 283.324 361.461 283.339 361.43C283.769 360.559 284.521 360.269 285.133 359.715C285.226 359.632 285.313 359.537 285.395 359.43L285.465 359.334C284.806 358.611 284.232 357.723 283.766 356.706C283.586 356.409 283.453 356.052 283.378 355.663C283.335 355.371 283.349 355.066 283.42 354.787C283.435 354.719 283.453 354.652 283.476 354.588L283.493 354.534C283.731 353.814 284.22 353.164 284.49 352.428C284.5 352.404 284.508 352.379 284.514 352.353C284.885 351.278 284.958 349.612 284.409 348.746C284.689 341.669 285.955 334.774 286.234 327.674C286.346 324.864 286.301 322.042 286.385 319.221C286.469 316.399 286.664 313.664 286.871 310.896C287.332 304.571 288.451 298.374 288.294 292.022C288.28 291.43 288.297 290.837 288.343 290.248C288.341 290.205 288.341 290.162 288.343 290.119C288.455 288.818 288.719 287.558 289.122 286.4C289.629 285.092 290.203 283.849 290.839 282.681C292.99 278.382 295.573 274.083 296.339 268.795C296.734 266.064 297.608 263.565 298.479 261.109C298.993 259.648 299.528 258.148 300.35 257.073C300.795 256.6 301.208 256.06 301.584 255.461C302.157 254.322 302.178 252.747 302.518 251.393C302.692 250.689 302.962 250.044 303.094 249.318C303.094 249.243 303.119 249.173 303.129 249.098C303.207 248.366 303.248 247.626 303.252 246.884C303.252 246.669 303.273 246.459 303.29 246.25C303.494 244.125 303.896 242.056 304.483 240.107C304.556 239.86 304.626 239.607 304.696 239.36C303.083 237.913 301.66 236.016 300.5 233.766C300.107 233.037 299.766 232.246 299.483 231.406C298.762 229.208 298.598 226.704 298.259 224.296C297.448 218.557 295.591 213.15 295.332 207.281C295.255 205.492 295.332 203.643 294.927 201.95C294.815 201.493 294.683 201.047 294.532 200.617C294.469 200.435 294.409 200.252 294.346 200.08L294.276 199.876L294.098 199.338L293.811 199.682C286.658 208.291 279.148 216.176 271.329 223.286L270.657 223.898C270.308 224.158 270.003 224.541 269.769 225.016C269.741 225.086 269.717 225.156 269.692 225.226C269.532 225.736 269.49 226.301 269.343 226.838C269.028 228.069 268.22 228.853 267.395 229.219C265.902 229.809 264.319 229.495 262.972 228.343C262.801 228.209 262.622 228.069 262.469 227.913C262.06 228.261 261.628 228.544 261.182 228.757C259.783 229.38 258.318 229.353 256.871 229.348C255.423 229.343 253.944 229.348 252.573 230.079C251.657 230.557 250.769 231.347 249.818 231.422C249.709 231.433 249.599 231.433 249.49 231.422C248.947 231.327 248.42 231.089 247.93 230.718L247.643 230.519C247.495 230.411 247.35 230.291 247.21 230.159C247.057 230.014 246.915 229.843 246.787 229.649C246.602 229.363 246.467 229.01 246.395 228.622C246.348 228.342 246.348 228.048 246.395 227.768C246.409 227.642 246.451 227.528 246.514 227.445C246.576 227.389 246.648 227.361 246.72 227.365C247.121 227.358 247.522 227.41 247.916 227.521C248.148 227.57 248.382 227.589 248.615 227.58H248.741C248.947 227.546 249.147 227.447 249.327 227.29C249.508 227.133 249.665 226.921 249.79 226.666C249.829 226.588 249.859 226.501 249.881 226.408C249.923 226.257 249.945 226.094 249.944 225.93C249.946 225.889 249.946 225.847 249.944 225.806C249.797 225.704 249.65 225.602 249.511 225.478C249.437 225.419 249.367 225.355 249.297 225.29L249.255 225.247C249.13 225.116 249.013 224.967 248.906 224.801C248.838 224.698 248.778 224.582 248.727 224.457C248.634 224.263 248.565 224.044 248.521 223.812C248.233 223.72 247.935 223.733 247.65 223.85C247.269 224.011 246.885 224.355 246.507 224.474C246.316 224.547 246.116 224.534 245.93 224.436C245.385 224.135 245.192 223.114 245.077 222.238C245.056 222.071 245.032 221.899 245.014 221.727C244.974 221.397 244.974 221.058 245.014 220.728C245.183 219.977 245.506 219.33 245.934 218.884L247.08 217.406L247.164 217.299C247.164 217.154 247.126 217.009 247.112 216.864C247.072 216.532 247.072 216.191 247.112 215.859C247.281 215.109 247.604 214.464 248.032 214.021L250.57 210.737C251.045 210.124 251.563 209.479 252.182 209.415C253.101 209.318 253.836 210.49 254.525 211.43C255.392 212.613 256.444 213.58 257.601 213.698C258.153 213.737 258.704 213.62 259.227 213.354L259.525 213.204C259.462 213.005 259.399 212.806 259.339 212.607C259.238 212.279 259.136 211.946 259.038 211.613C260.528 211.468 261.881 210.21 263.011 208.706C264.14 207.201 265.108 205.422 266.248 203.944C267.479 202.332 268.892 201.133 270.14 199.58C273.042 195.963 274.969 190.648 278.073 187.461C279.15 186.349 280.395 185.462 281.129 183.807C281.357 183.27 281.528 182.732 281.762 182.195C282.507 180.582 283.783 179.841 284.836 178.723C285.888 177.605 286.804 175.966 287.661 174.391C288.269 173.268 288.881 172.145 289.462 170.989C289.997 169.458 290.448 167.856 291.007 166.346C291.482 165.07 292.036 163.868 292.661 162.756C292.804 162.326 292.951 161.896 293.108 161.477C293.266 161.058 293.381 160.773 293.528 160.402C293.629 160.16 293.734 159.929 293.843 159.693C293.525 158.828 293.22 158.081 293.077 157.753L293.007 157.608C292.699 157.103 292.369 156.629 292.021 156.189C291.655 156.104 291.294 155.985 290.937 155.834C288.779 154.925 286.876 152.951 285.52 150.215C284.164 147.479 283.431 144.134 283.434 140.695C283.432 140.679 283.432 140.663 283.434 140.647C283.435 138.184 283.816 135.756 284.545 133.564C284.692 133.123 284.85 132.698 285.021 132.285C284.861 132.207 284.706 132.11 284.556 131.994C284.301 131.801 284.078 131.52 283.906 131.172C283.763 130.862 283.671 130.505 283.636 130.129C283.577 129.244 283.664 128.349 283.888 127.528C283.984 127.133 284.092 126.746 284.213 126.368C284.223 126.345 284.231 126.322 284.238 126.298C285.801 121.461 289.133 118.489 292.462 118.279C296.052 118.059 299.549 120.649 302.381 124.358C303.226 125.423 303.983 126.645 304.633 127.996C306.112 131.156 306.78 135.197 306.976 139.201C307.049 140.439 307.035 141.686 306.934 142.92C306.897 143.36 306.838 143.794 306.759 144.221C306.713 144.473 306.654 144.726 306.591 144.978C306.528 145.231 306.49 145.344 306.434 145.516V145.543C306.381 145.715 306.322 145.876 306.262 146.037L306.231 146.107L306.185 146.22C306.213 146.322 306.245 146.429 306.276 146.532C306.308 146.634 306.336 146.73 306.371 146.827H306.413C307.112 146.913 307.759 147.064 308.472 147.15C308.808 147.174 309.14 147.253 309.465 147.386C310.164 147.708 310.692 148.493 311.28 149.127C312.734 150.707 314.525 151.444 315.955 153.077C318.052 155.485 319.101 159.462 320.374 163.025C322.052 167.797 324.787 171.86 325.993 176.966C326.539 179.284 327.086 181.598 327.636 183.909C328.71 188.44 329.783 192.991 331.241 197.264C333.269 203.208 336.014 208.55 337.64 214.795C337.801 215.42 338.104 215.936 338.493 216.246C340.709 221.054 342.678 226.119 344.385 231.395C345.283 234.185 346.133 237.081 346.395 240.172C346.6 242.923 346.451 245.709 345.958 248.373C345.679 249.955 345.337 251.509 344.934 253.027C344.776 253.558 344.659 254.115 344.584 254.687C344.584 254.746 344.584 254.805 344.584 254.865C344.514 255.896 344.769 256.918 344.839 257.949C344.898 258.78 344.837 259.62 344.661 260.411C344.633 260.534 344.601 260.658 344.57 260.782C344.353 261.41 344.17 262.064 344.021 262.738C344.008 262.819 343.999 262.902 343.993 262.985C343.878 264.151 344.178 265.328 344.343 266.494C344.958 270.708 344.846 275.093 344.692 279.392C344.612 281.542 345.741 283.267 346.685 284.853C348.434 287.825 349.801 291.302 351.119 294.763C351.838 296.52 352.444 298.381 352.927 300.32C353.427 302.534 353.626 304.877 353.902 307.172C354.794 314.266 357.706 320.532 358.497 327.642C358.863 330.898 359.797 333.94 361.199 336.445C361.622 337.116 362.011 337.834 362.364 338.595C362.607 339.2 362.801 339.85 362.941 340.529C363.284 342.11 363.447 343.77 363.42 345.436C363.364 346.233 363.394 347.039 363.507 347.822C363.836 349.472 365.011 350.38 365.497 351.933C365.983 353.487 365.647 355.475 365.846 357.238C366.003 358.659 366.502 359.937 367.245 360.817C366.965 361.193 366.671 361.537 366.371 361.892C366.649 362.224 366.893 362.619 367.094 363.063C367.232 363.361 367.349 363.68 367.444 364.015C367.906 365.664 367.92 367.626 368.297 369.389C368.458 370.12 368.685 370.894 368.546 371.635C368.486 371.848 368.446 372.072 368.427 372.302C368.427 372.785 368.755 373.102 368.881 373.543C368.927 373.765 368.934 374.001 368.902 374.228C368.87 374.455 368.8 374.665 368.699 374.838Z" fill="url(#paint0_linear_27_301)"/>
<path d="M294.699 165.244C296.839 164.358 298.745 162.504 300.612 160.671L307.119 154.303C305.353 154.088 303.829 152.153 302.923 149.81C302.018 147.467 301.643 144.742 301.336 142.066C298.539 143.742 296.115 146.585 293.857 149.589C292.962 150.777 291.06 152.572 290.783 154.426C290.507 156.28 292.269 157.785 292.951 159.027C293.185 159.44 295.392 164.949 294.699 165.244Z" fill="#FBBEBE"/>
<path opacity="0.1" d="M294.699 165.244C296.839 164.358 298.745 162.504 300.612 160.671L307.119 154.303C305.353 154.088 303.829 152.153 302.923 149.81C302.018 147.467 301.643 144.742 301.336 142.066C298.539 143.742 296.115 146.585 293.857 149.589C292.962 150.777 291.06 152.572 290.783 154.426C290.507 156.28 292.269 157.785 292.951 159.027C293.185 159.44 295.392 164.949 294.699 165.244Z" fill="black"/>
<path d="M259.143 217.847C257.997 218.75 256.776 219.674 255.493 219.545C254.339 219.433 253.287 218.471 252.42 217.294C251.72 216.359 251 215.192 250.08 215.289C249.465 215.354 248.948 215.993 248.472 216.6L245.937 219.862C245.51 220.303 245.188 220.944 245.018 221.69C244.967 222.196 244.988 222.712 245.077 223.205C245.192 224.076 245.385 225.092 245.93 225.387C246.476 225.683 247.07 225.049 247.647 224.807C247.999 224.668 248.369 224.679 248.718 224.837C249.067 224.994 249.382 225.294 249.629 225.704C249.835 226.016 249.96 226.433 249.979 226.876C249.979 227.849 249.28 228.488 248.636 228.536C247.993 228.585 247.378 228.262 246.741 228.321C246.703 228.314 246.664 228.318 246.627 228.334C246.589 228.351 246.554 228.378 246.524 228.415C246.494 228.452 246.469 228.498 246.45 228.55C246.432 228.603 246.42 228.66 246.416 228.719C246.377 229.059 246.393 229.408 246.465 229.735C246.536 230.062 246.66 230.356 246.825 230.589C247.157 231.055 247.544 231.42 247.965 231.664C248.454 232.036 248.982 232.272 249.525 232.363C250.598 232.47 251.584 231.557 252.601 231.025C253.972 230.315 255.448 230.294 256.895 230.299C258.343 230.305 259.811 230.337 261.199 229.713C262.587 229.09 263.906 227.709 264.448 225.65C264.512 225.458 264.532 225.239 264.507 225.027C264.453 224.801 264.349 224.611 264.213 224.49C262.262 222.27 261.472 219.572 259.276 217.976L259.143 217.847Z" fill="#FBBEBE"/>
<path opacity="0.1" d="M259.143 217.847C257.997 218.75 256.776 219.674 255.493 219.545C254.339 219.433 253.287 218.471 252.42 217.294C251.72 216.359 251 215.192 250.08 215.289C249.465 215.354 248.948 215.993 248.472 216.6L245.937 219.862C245.51 220.303 245.188 220.944 245.018 221.69C244.967 222.196 244.988 222.712 245.077 223.205C245.192 224.076 245.385 225.092 245.93 225.387C246.476 225.683 247.07 225.049 247.647 224.807C247.999 224.668 248.369 224.679 248.718 224.837C249.067 224.994 249.382 225.294 249.629 225.704C249.835 226.016 249.96 226.433 249.979 226.876C249.979 227.849 249.28 228.488 248.636 228.536C247.993 228.585 247.378 228.262 246.741 228.321C246.703 228.314 246.664 228.318 246.627 228.334C246.589 228.351 246.554 228.378 246.524 228.415C246.494 228.452 246.469 228.498 246.45 228.55C246.432 228.603 246.42 228.66 246.416 228.719C246.377 229.059 246.393 229.408 246.465 229.735C246.536 230.062 246.66 230.356 246.825 230.589C247.157 231.055 247.544 231.42 247.965 231.664C248.454 232.036 248.982 232.272 249.525 232.363C250.598 232.47 251.584 231.557 252.601 231.025C253.972 230.315 255.448 230.294 256.895 230.299C258.343 230.305 259.811 230.337 261.199 229.713C262.587 229.09 263.906 227.709 264.448 225.65C264.512 225.458 264.532 225.239 264.507 225.027C264.453 224.801 264.349 224.611 264.213 224.49C262.262 222.27 261.472 219.572 259.276 217.976L259.143 217.847Z" fill="black"/>
<path d="M300.087 160.531C299.545 159.993 298.929 159.654 298.288 159.539C297.646 159.424 296.996 159.538 296.388 159.87C295.17 160.545 294.077 161.664 293.203 163.132C292.33 164.5 291.575 166.033 290.955 167.695C290.36 169.307 289.906 170.995 289.311 172.602C288.262 175.477 286.892 178.014 285.514 180.529C284.657 182.093 283.79 183.678 282.692 184.828C281.594 185.978 280.367 186.682 279.622 188.278C279.388 188.783 279.22 189.353 278.989 189.864C278.259 191.508 277.017 192.39 275.937 193.491C272.839 196.662 270.913 201.94 268.017 205.535C266.769 207.083 265.36 208.297 264.133 209.877C262.989 211.344 262.035 213.102 260.895 214.607C259.755 216.111 258.416 217.353 256.93 217.492C257.923 220.894 259.108 224.232 260.811 226.881C262.514 229.531 265.066 231.224 267.392 230.186C268.217 229.821 269.024 229.047 269.339 227.822C269.438 227.192 269.576 226.578 269.752 225.989C269.985 225.516 270.288 225.135 270.636 224.877C279.97 216.502 288.868 207.028 297.248 196.538C299.496 193.722 301.727 191.202 304.035 188.477C304.862 187.575 305.627 186.545 306.318 185.403C307.281 183.637 307.882 181.472 308.046 179.182C308.21 176.892 307.93 174.578 307.241 172.532C306.622 170.966 305.913 169.49 305.122 168.12C303.683 165.24 301.989 162.686 300.087 160.531Z" fill="#6C63FF"/>
<path opacity="0.1" d="M300.087 160.531C299.545 159.993 298.929 159.654 298.288 159.539C297.646 159.424 296.996 159.538 296.388 159.87C295.17 160.545 294.077 161.664 293.203 163.132C292.33 164.5 291.575 166.033 290.955 167.695C290.36 169.307 289.906 170.995 289.311 172.602C288.262 175.477 286.892 178.014 285.514 180.529C284.657 182.093 283.79 183.678 282.692 184.828C281.594 185.978 280.367 186.682 279.622 188.278C279.388 188.783 279.22 189.353 278.989 189.864C278.259 191.508 277.017 192.39 275.937 193.491C272.839 196.662 270.913 201.94 268.017 205.535C266.769 207.083 265.36 208.297 264.133 209.877C262.989 211.344 262.035 213.102 260.895 214.607C259.755 216.111 258.416 217.353 256.93 217.492C257.923 220.894 259.108 224.232 260.811 226.881C262.514 229.531 265.066 231.224 267.392 230.186C268.217 229.821 269.024 229.047 269.339 227.822C269.438 227.192 269.576 226.578 269.752 225.989C269.985 225.516 270.288 225.135 270.636 224.877C279.97 216.502 288.868 207.028 297.248 196.538C299.496 193.722 301.727 191.202 304.035 188.477C304.862 187.575 305.627 186.545 306.318 185.403C307.281 183.637 307.882 181.472 308.046 179.182C308.21 176.892 307.93 174.578 307.241 172.532C306.622 170.966 305.913 169.49 305.122 168.12C303.683 165.24 301.989 162.686 300.087 160.531Z" fill="#F5F2EA"/>
<path d="M285.063 359.898C284.451 360.435 283.699 360.736 283.269 361.607C283.129 361.886 283.035 362.214 282.885 362.483C282.42 363.321 281.594 363.359 280.948 363.837C280.43 364.213 280.011 364.912 279.462 365.132C279.133 365.252 278.795 365.292 278.458 365.251L275.059 365.095C273.983 365.046 272.72 365.132 272.094 366.481C271.891 366.976 271.747 367.521 271.668 368.094C271.406 369.636 271.192 371.383 271.741 372.737C272.399 374.349 273.839 374.677 275.08 374.784C279.876 375.192 284.684 375.048 289.465 374.354C290.112 374.227 290.765 374.186 291.416 374.231C291.934 374.295 292.441 374.473 292.951 374.607C295.528 375.279 298.164 374.887 300.766 374.489C301.205 374.456 301.639 374.315 302.049 374.07C302.253 373.942 302.434 373.739 302.576 373.48C302.718 373.221 302.817 372.912 302.864 372.581C302.972 371.474 302.297 370.533 302.224 369.421C302.171 368.636 302.416 367.76 302.136 367.094C302.032 366.898 301.915 366.718 301.787 366.557C301.318 365.81 301.182 364.719 301.066 363.697L300.455 358.178C300.437 357.789 300.334 357.421 300.161 357.136C300.032 356.993 299.884 356.899 299.727 356.861C297.063 355.937 294.332 356.781 291.685 357.297C290.323 357.604 288.945 357.71 287.57 357.614C286.976 357.555 286.745 357.447 286.301 358.044C285.857 358.64 285.619 359.398 285.063 359.898Z" fill="#3F3D56"/>
<path d="M349.402 366.54C348.935 366.942 348.433 367.244 347.913 367.438C346.54 368.054 345.169 368.697 343.801 369.367C343.437 369.506 343.095 369.758 342.797 370.109C342.322 370.754 342.199 371.807 342.164 372.796C342.119 373.341 342.161 373.894 342.287 374.408C342.451 374.89 342.691 375.301 342.986 375.601C344.553 377.423 346.598 377.987 348.563 377.987C350.528 377.987 352.479 377.477 354.444 377.396C356.818 377.3 359.255 377.816 361.539 376.794C361.974 376.547 362.427 376.377 362.888 376.289C363.195 376.282 363.501 376.313 363.804 376.381C365.029 376.567 366.265 376.393 367.448 375.87C367.803 375.749 368.135 375.496 368.413 375.134C368.55 374.951 368.648 374.708 368.695 374.438C368.741 374.167 368.733 373.882 368.671 373.618C368.546 373.183 368.224 372.866 368.22 372.388C368.237 372.158 368.276 371.933 368.336 371.721C368.479 370.985 368.248 370.216 368.087 369.491C367.636 367.416 367.71 365.03 366.902 363.23C366.094 361.43 364.612 360.688 363.203 360.403C362.058 360.154 360.893 360.205 359.759 360.554C358.483 360.973 357.29 361.849 356.039 362.408C354.586 363.05 353.068 363.27 351.563 363.058C350.563 362.929 350.906 363.171 350.567 364.461C350.326 365.321 349.92 366.047 349.402 366.54Z" fill="#3F3D56"/>
<path d="M293.531 157.79C299.132 157.79 303.671 150.813 303.671 142.205C303.671 133.598 299.132 126.62 293.531 126.62C287.931 126.62 283.392 133.598 283.392 142.205C283.392 150.813 287.931 157.79 293.531 157.79Z" fill="#FBBEBE"/>
<path d="M367.042 360.967C363.895 365.122 359.647 366.938 355.503 367.003C353.755 367.029 351.941 366.739 350.451 365.347C350.346 364.466 350.304 363.515 350.199 362.633C348.392 362.053 346.989 359.79 346.115 357.286C345.241 354.782 344.797 351.998 344.147 349.343C343.154 345.302 341.699 341.577 340.245 337.88C338.909 334.473 337.57 331.055 336.049 327.835C335.042 325.686 333.951 323.665 332.955 321.521C330.131 315.552 328.105 308.783 326.993 301.604C326.823 300.227 326.581 298.874 326.269 297.557C325.668 295.311 324.566 293.484 323.717 291.436C322.8 289.226 322.172 286.764 321.867 284.186C321.696 282.724 321.402 281.144 320.448 280.994C318.441 286.986 316.395 293.075 313.36 297.95C312.883 298.653 312.447 299.419 312.056 300.239C311.742 301.035 311.462 301.861 311.217 302.711C310.746 304.236 310.12 305.637 309.364 306.86C308.729 307.903 307.893 308.604 306.979 308.859C307.653 314.023 307.252 319.382 305.832 324.176C305.409 325.594 304.902 326.949 304.503 328.384C302.874 334.295 303.252 340.965 303.08 347.376C303.065 348.72 302.962 350.057 302.773 351.369C302.35 353.992 301.475 356.781 301.899 359.404C297.514 361.978 292.643 361.816 288 360.731C287.092 360.603 286.21 360.192 285.409 359.522C284.751 358.805 284.176 357.922 283.71 356.91C283.53 356.615 283.397 356.26 283.322 355.873C283.14 354.647 284.021 353.723 284.43 352.648C284.839 351.573 284.913 349.87 284.35 348.988C284.629 341.953 285.895 335.085 286.175 328.029C286.287 325.234 286.241 322.429 286.325 319.629C286.409 316.829 286.605 314.104 286.808 311.353C287.269 305.07 288.388 298.912 288.231 292.597C288.183 290.653 288.474 288.726 289.073 287.013C289.579 285.712 290.152 284.475 290.787 283.316C292.934 279.054 295.514 274.781 296.28 269.52C296.675 266.806 297.549 264.323 298.416 261.883C298.93 260.427 299.465 258.938 300.283 257.869C300.728 257.395 301.142 256.855 301.517 256.257C302.091 255.123 302.112 253.569 302.451 252.215C302.626 251.516 302.895 250.872 303.024 250.151C303.131 249.356 303.184 248.545 303.182 247.733C303.294 245.132 303.944 242.617 304.629 240.236C303.018 238.802 301.595 236.917 300.434 234.679C300.044 233.952 299.704 233.165 299.42 232.331C298.699 230.149 298.535 227.66 298.196 225.269C297.388 219.562 295.531 214.193 295.273 208.362C295.196 206.583 295.273 204.745 294.871 203.063C294.685 202.351 294.468 201.66 294.22 200.994C293.976 200.339 293.791 199.638 293.668 198.908C293.444 197.323 293.752 195.684 293.668 194.072C293.584 192.648 293.189 191.315 292.993 189.923C292.793 188.112 292.759 186.267 292.892 184.441C292.979 182.291 293.283 180.072 293.164 177.949C292.972 174.436 293.263 170.901 294.019 167.573C294.775 164.245 295.979 161.199 297.552 158.634L297.633 158.511C298.301 157.436 299.031 156.485 299.633 155.345C300.451 153.819 301.031 152.024 301.895 150.541C302.273 149.88 302.699 149.288 303.073 148.622C303.417 147.923 303.797 147.269 304.21 146.666C304.419 146.368 304.672 146.152 304.947 146.039C305.223 145.926 305.512 145.918 305.79 146.016C305.86 146.817 306.024 147.593 306.273 148.305C307 148.391 307.647 148.547 308.371 148.633C308.706 148.657 309.039 148.737 309.364 148.869C310.045 149.186 310.591 149.944 311.175 150.594C312.629 152.169 314.416 152.9 315.846 154.523C317.944 156.914 318.993 160.865 320.259 164.406C321.934 169.152 324.664 173.188 325.853 178.261L327.493 185.161C328.566 189.665 329.64 194.185 331.094 198.43C333.119 204.342 335.86 209.668 337.486 215.853C337.648 216.474 337.95 216.985 338.336 217.294C340.549 222.066 342.517 227.097 344.22 232.341C345.119 235.114 345.968 237.995 346.227 241.064C346.608 245.401 345.839 249.786 344.769 253.838C344.596 254.418 344.479 255.034 344.42 255.665C344.35 256.692 344.605 257.702 344.675 258.729C344.742 259.687 344.65 260.656 344.406 261.545C344.188 262.169 344.005 262.82 343.857 263.49C343.668 264.726 344.003 265.984 344.185 267.22C344.801 271.406 344.689 275.743 344.535 280.032C344.454 282.182 345.584 283.885 346.524 285.46C348.273 288.41 349.636 291.861 350.954 295.305C351.671 297.053 352.275 298.903 352.759 300.83C353.259 303.028 353.458 305.355 353.734 307.639C354.622 314.685 357.531 320.913 358.322 327.981C358.688 331.218 359.621 334.241 361.021 336.724C361.443 337.396 361.832 338.115 362.185 338.874C362.427 339.477 362.619 340.123 362.759 340.798C363.102 342.367 363.265 344.017 363.238 345.672C363.182 346.464 363.212 347.265 363.325 348.042C363.654 349.682 364.829 350.584 365.311 352.127C365.794 353.669 365.462 355.647 365.661 357.399C365.811 358.814 366.305 360.089 367.042 360.967Z" fill="#F5F2EA"/>
<path d="M261.241 213.01C260.094 213.913 258.874 214.838 257.591 214.709C256.437 214.596 255.385 213.634 254.518 212.457C253.818 211.522 253.098 210.356 252.178 210.452C251.563 210.517 251.045 211.156 250.57 211.764L248.035 215.026C247.608 215.466 247.286 216.107 247.115 216.853C247.065 217.359 247.086 217.875 247.175 218.368C247.29 219.239 247.483 220.255 248.028 220.55C248.573 220.846 249.168 220.212 249.745 219.97C250.097 219.831 250.467 219.842 250.816 220C251.165 220.158 251.48 220.457 251.727 220.867C251.933 221.179 252.058 221.596 252.077 222.039C252.077 223.012 251.378 223.651 250.734 223.7C250.091 223.748 249.476 223.426 248.839 223.485C248.801 223.477 248.762 223.482 248.724 223.498C248.687 223.514 248.652 223.541 248.622 223.578C248.592 223.615 248.567 223.661 248.548 223.713C248.529 223.766 248.518 223.823 248.514 223.882C248.475 224.222 248.491 224.571 248.563 224.898C248.634 225.225 248.758 225.519 248.923 225.753C249.255 226.219 249.642 226.583 250.063 226.827C250.552 227.199 251.08 227.436 251.622 227.526C252.696 227.634 253.682 226.72 254.699 226.188C256.07 225.478 257.545 225.457 258.993 225.462C260.441 225.468 261.909 225.5 263.297 224.877C264.685 224.253 266.004 222.872 266.545 220.814C266.609 220.622 266.63 220.402 266.605 220.19C266.551 219.964 266.447 219.774 266.311 219.653C264.36 217.433 263.57 214.735 261.374 213.139L261.241 213.01Z" fill="#FBBEBE"/>
<path d="M288.598 132.628C287.993 132.779 287.479 133.408 286.906 133.757C286.521 133.987 286.109 134.088 285.696 134.055C285.284 134.022 284.881 133.854 284.514 133.564C284.258 133.372 284.034 133.093 283.86 132.747C283.392 131.747 283.556 130.296 283.843 129.124C285.199 123.584 288.822 120.155 292.409 119.935C295.996 119.714 299.486 122.289 302.315 125.97C303.156 127.032 303.911 128.246 304.563 129.587C306.038 132.731 306.706 136.745 306.902 140.722C307.019 142.391 306.947 144.078 306.689 145.709C306.565 146.502 306.338 147.248 306.022 147.902C305.706 148.557 305.307 149.107 304.85 149.52C303.85 150.304 302.65 150.057 301.64 149.305C300.629 148.552 299.762 147.365 298.895 146.231C298.502 145.648 298.037 145.193 297.528 144.892C297.274 144.753 296.999 144.73 296.737 144.825C296.474 144.921 296.236 145.131 296.049 145.43C295.58 146.295 295.699 147.714 295.273 148.654C294.846 149.595 293.958 149.729 293.21 149.729C292.462 149.729 291.703 149.632 291.255 148.719C290.846 147.891 290.906 146.682 291.059 145.639C291.213 144.597 291.476 143.565 291.409 142.496C291.266 140.346 290.042 139.024 289.661 137.046C289.413 135.751 289.958 135.203 289.902 134.031C289.86 132.999 289.14 132.494 288.598 132.628Z" fill="#3F3D56"/>
<path opacity="0.1" d="M320.454 280.86V280.994C318.448 286.986 316.402 293.075 313.367 297.95C312.89 298.653 312.454 299.419 312.063 300.239C311.749 301.035 311.469 301.861 311.224 302.711C310.753 304.236 310.127 305.637 309.371 306.86L306.839 308.805L314.881 244.315L320.454 280.86Z" fill="#F5F2EA"/>
<path opacity="0.1" d="M308.766 183.253C308.075 184.395 307.31 185.425 306.483 186.327C304.175 189.015 301.937 191.551 299.696 194.389C297.889 196.649 296.057 198.864 294.199 201.031C293.956 200.377 293.77 199.676 293.647 198.946C293.423 197.361 293.731 195.722 293.647 194.109C293.563 192.685 293.168 191.352 292.972 189.96C292.772 188.149 292.738 186.304 292.871 184.479C292.958 182.329 293.262 180.109 293.143 177.987C292.95 174.466 293.243 170.921 294.003 167.586C294.762 164.251 295.972 161.201 297.552 158.634L297.633 158.511C298.009 158.174 298.408 157.9 298.822 157.694C299.431 157.365 300.082 157.256 300.723 157.376C301.365 157.495 301.98 157.839 302.521 158.382C304.422 160.536 306.117 163.091 307.556 165.97C308.347 167.34 309.056 168.817 309.675 170.382C310.366 172.426 310.648 174.739 310.486 177.029C310.325 179.319 309.726 181.485 308.766 183.253Z" fill="black"/>
<path d="M302.185 155.695C301.643 155.156 301.027 154.817 300.386 154.702C299.744 154.588 299.094 154.701 298.486 155.034C297.268 155.708 296.175 156.827 295.301 158.296C294.428 159.663 293.673 161.197 293.052 162.858C292.458 164.471 292.003 166.158 291.409 167.765C290.36 170.64 288.989 173.177 287.612 175.692C286.755 177.256 285.888 178.841 284.79 179.991C283.692 181.141 282.465 181.845 281.72 183.442C281.486 183.947 281.318 184.516 281.087 185.027C280.357 186.671 279.115 187.553 278.035 188.654C274.937 191.825 273.01 197.103 270.115 200.698C268.867 202.246 267.458 203.46 266.231 205.04C265.087 206.508 264.133 208.265 262.993 209.77C261.853 211.274 260.514 212.516 259.028 212.656C260.021 216.058 261.206 219.395 262.909 222.044C264.612 224.694 267.164 226.387 269.489 225.35C270.315 224.984 271.122 224.21 271.437 222.985C271.536 222.355 271.674 221.741 271.85 221.152C272.083 220.679 272.386 220.298 272.734 220.04C282.068 211.665 290.966 202.191 299.346 191.702C301.594 188.886 303.825 186.365 306.133 183.64C306.96 182.738 307.725 181.708 308.416 180.566C309.378 178.8 309.98 176.635 310.144 174.345C310.308 172.055 310.028 169.741 309.339 167.695C308.72 166.13 308.011 164.653 307.22 163.283C305.781 160.404 304.086 157.849 302.185 155.695Z" fill="#F5F2EA"/>
<g opacity="0.1">
<path d="M293.909 147.563C293.21 147.563 292.402 147.467 291.954 146.553C291.549 145.725 291.605 144.516 291.759 143.474C291.913 142.431 292.175 141.399 292.108 140.33C291.965 138.18 290.741 136.858 290.36 134.88C290.112 133.585 290.657 133.037 290.601 131.865C290.552 130.85 289.836 130.344 289.294 130.479C288.689 130.629 288.175 131.258 287.601 131.607C287.216 131.837 286.804 131.939 286.392 131.905C285.98 131.872 285.577 131.705 285.21 131.414C284.954 131.223 284.73 130.943 284.556 130.597C284.087 129.597 284.252 128.146 284.538 126.975C284.538 126.932 284.563 126.894 284.573 126.851C284.281 127.57 284.035 128.332 283.839 129.124C283.552 130.296 283.388 131.747 283.857 132.747C284.031 133.093 284.254 133.372 284.51 133.564C284.877 133.854 285.28 134.022 285.693 134.055C286.105 134.088 286.517 133.987 286.902 133.757C287.475 133.408 287.989 132.779 288.594 132.628C289.136 132.494 289.853 132.999 289.902 134.015C289.958 135.187 289.413 135.735 289.661 137.03C290.035 139.008 291.259 140.351 291.409 142.479C291.479 143.554 291.224 144.586 291.059 145.623C290.895 146.66 290.85 147.875 291.255 148.703C291.703 149.616 292.503 149.702 293.21 149.713C293.916 149.724 294.825 149.649 295.273 148.638C295.466 148.131 295.593 147.57 295.647 146.988C295.171 147.51 294.507 147.574 293.909 147.563Z" fill="black"/>
<path d="M305.549 147.37C304.549 148.155 303.35 147.907 302.339 147.155C301.329 146.403 300.462 145.215 299.594 144.081C299.202 143.499 298.737 143.044 298.227 142.743C297.973 142.604 297.698 142.58 297.436 142.676C297.174 142.771 296.935 142.981 296.748 143.28C296.511 143.82 296.361 144.439 296.311 145.086C296.493 144.921 296.696 144.818 296.906 144.784C297.115 144.75 297.328 144.785 297.528 144.887C298.037 145.188 298.502 145.643 298.895 146.225C299.762 147.359 300.643 148.552 301.64 149.299C302.636 150.046 303.85 150.299 304.85 149.514C305.734 148.719 306.379 147.419 306.643 145.897C306.356 146.51 305.982 147.013 305.549 147.37Z" fill="black"/>
</g>
<path d="M218.532 378.401C224.325 378.401 229.021 371.183 229.021 362.279C229.021 353.374 224.325 346.156 218.532 346.156C212.738 346.156 208.042 353.374 208.042 362.279C208.042 371.183 212.738 378.401 218.532 378.401Z" fill="#3F3D56"/>
<path opacity="0.1" d="M218.532 378.401C224.325 378.401 229.021 371.183 229.021 362.279C229.021 353.374 224.325 346.156 218.532 346.156C212.738 346.156 208.042 353.374 208.042 362.279C208.042 371.183 212.738 378.401 218.532 378.401Z" fill="black"/>
<path d="M218.531 372.49C222.2 372.49 225.175 367.918 225.175 362.279C225.175 356.639 222.2 352.068 218.531 352.068C214.862 352.068 211.888 356.639 211.888 362.279C211.888 367.918 214.862 372.49 218.531 372.49Z" fill="#65617D"/>
<path opacity="0.1" d="M218.531 372.49C222.2 372.49 225.175 367.918 225.175 362.279C225.175 356.639 222.2 352.068 218.531 352.068C214.862 352.068 211.888 356.639 211.888 362.279C211.888 367.918 214.862 372.49 218.531 372.49Z" fill="black"/>
<path d="M210.49 337.02L217.371 360.935C217.473 361.294 217.64 361.6 217.852 361.817C218.064 362.034 218.312 362.154 218.567 362.162C218.821 362.17 219.072 362.066 219.29 361.862C219.507 361.658 219.682 361.362 219.794 361.01L227.972 335.408L210.49 337.02Z" fill="#3F3D56"/>
<path opacity="0.1" d="M210.49 337.02L217.371 360.935C217.473 361.294 217.64 361.6 217.852 361.817C218.064 362.034 218.312 362.154 218.567 362.162C218.821 362.17 219.072 362.066 219.29 361.862C219.507 361.658 219.682 361.362 219.794 361.01L227.972 335.408L210.49 337.02Z" fill="black"/>
<path d="M153.147 378.401C158.94 378.401 163.636 371.183 163.636 362.279C163.636 353.374 158.94 346.156 153.147 346.156C147.354 346.156 142.657 353.374 142.657 362.279C142.657 371.183 147.354 378.401 153.147 378.401Z" fill="#3F3D56"/>
<path opacity="0.1" d="M153.147 378.401C158.94 378.401 163.636 371.183 163.636 362.279C163.636 353.374 158.94 346.156 153.147 346.156C147.354 346.156 142.657 353.374 142.657 362.279C142.657 371.183 147.354 378.401 153.147 378.401Z" fill="black"/>
<path d="M153.147 372.49C156.816 372.49 159.79 367.918 159.79 362.279C159.79 356.639 156.816 352.068 153.147 352.068C149.478 352.068 146.504 356.639 146.504 362.279C146.504 367.918 149.478 372.49 153.147 372.49Z" fill="#65617D"/>
<path opacity="0.1" d="M153.147 372.49C156.816 372.49 159.79 367.918 159.79 362.279C159.79 356.639 156.816 352.068 153.147 352.068C149.478 352.068 146.504 356.639 146.504 362.279C146.504 367.918 149.478 372.49 153.147 372.49Z" fill="black"/>
<path d="M145.105 337.02L151.986 360.935C152.088 361.294 152.255 361.6 152.467 361.817C152.679 362.034 152.927 362.154 153.182 362.162C153.437 362.17 153.687 362.066 153.905 361.862C154.122 361.658 154.297 361.362 154.409 361.01L162.587 335.408L145.105 337.02Z" fill="#3F3D56"/>
<path opacity="0.1" d="M145.105 337.02L151.986 360.935C152.088 361.294 152.255 361.6 152.467 361.817C152.679 362.034 152.927 362.154 153.182 362.162C153.437 362.17 153.687 362.066 153.905 361.862C154.122 361.658 154.297 361.362 154.409 361.01L162.587 335.408L145.105 337.02Z" fill="black"/>
<path d="M252.573 221.878C252.545 221.471 252.45 221.081 252.298 220.745C252.146 220.409 251.941 220.137 251.703 219.954C251.502 219.822 251.286 219.754 251.068 219.754C250.85 219.753 250.634 219.82 250.433 219.95C250.232 220.081 250.05 220.272 249.898 220.513C249.746 220.753 249.628 221.038 249.549 221.351L243.531 244.315L241.783 347.5H244.58L245.629 244.535L252.427 223.436C252.581 222.954 252.633 222.408 252.573 221.878Z" fill="#3F3D56"/>
<path d="M128.846 339.438L138.287 330.302L240.21 328.959L242.832 339.438H128.846Z" fill="#F5F2EA"/>
<path d="M128.846 349.112V339.438L244.678 337.719L244.566 344.275H130.944V349.112H128.846Z" fill="#3F3D56"/>
<path d="M143.532 384.044C149.325 384.044 154.021 376.826 154.021 367.922C154.021 359.017 149.325 351.799 143.532 351.799C137.738 351.799 133.042 359.017 133.042 367.922C133.042 376.826 137.738 384.044 143.532 384.044Z" fill="#3F3D56"/>
<path d="M143.531 378.133C147.2 378.133 150.175 373.561 150.175 367.922C150.175 362.282 147.2 357.711 143.531 357.711C139.862 357.711 136.888 362.282 136.888 367.922C136.888 373.561 139.862 378.133 143.531 378.133Z" fill="#65617D"/>
<path d="M135.49 342.663L142.371 366.578C142.473 366.937 142.64 367.243 142.852 367.46C143.064 367.677 143.312 367.797 143.567 367.805C143.821 367.813 144.072 367.709 144.29 367.505C144.507 367.3 144.682 367.005 144.794 366.653L152.972 341.051L135.49 342.663Z" fill="#3F3D56"/>
<path d="M225 384.044C230.793 384.044 235.49 376.826 235.49 367.922C235.49 359.017 230.793 351.799 225 351.799C219.207 351.799 214.51 359.017 214.51 367.922C214.51 376.826 219.207 384.044 225 384.044Z" fill="#3F3D56"/>
<path d="M225 378.133C228.669 378.133 231.643 373.561 231.643 367.922C231.643 362.282 228.669 357.711 225 357.711C221.331 357.711 218.357 362.282 218.357 367.922C218.357 373.561 221.331 378.133 225 378.133Z" fill="#65617D"/>
<path d="M216.958 342.663L223.839 366.578C223.942 366.937 224.109 367.243 224.321 367.46C224.532 367.677 224.78 367.797 225.035 367.805C225.29 367.813 225.541 367.709 225.758 367.505C225.975 367.3 226.15 367.005 226.262 366.653L234.441 341.051L216.958 342.663Z" fill="#3F3D56"/>
<path d="M185.664 297.251H141.958V334.333H185.664V297.251Z" fill="#65617D"/>
<path opacity="0.1" d="M170.629 303.7H157.343V307.999H170.629V303.7Z" fill="black"/>
<path opacity="0.1" d="M168.969 304.237H159.004V307.462H168.969V304.237Z" fill="black"/>
<path d="M230.07 297.251H186.364V334.333H230.07V297.251Z" fill="#FA2300" fill-opacity="0.8"/>
<path opacity="0.1" d="M215.035 303.7H201.748V307.999H215.035V303.7Z" fill="black"/>
<path opacity="0.1" d="M213.374 304.237H203.409V307.462H213.374V304.237Z" fill="black"/>
<path d="M185.664 259.094H141.958V296.176H185.664V259.094Z" fill="#FA2300" fill-opacity="0.79"/>
<path opacity="0.1" d="M170.629 265.543H157.343V269.843H170.629V265.543Z" fill="black"/>
<path opacity="0.1" d="M168.969 266.081H159.004V269.305H168.969V266.081Z" fill="black"/>
<path d="M230.07 259.094H186.364V296.176H230.07V259.094Z" fill="#65617D"/>
<path opacity="0.1" d="M215.035 265.543H201.748V269.843H215.035V265.543Z" fill="black"/>
<path opacity="0.1" d="M213.374 266.081H203.409V269.305H213.374V266.081Z" fill="black"/>
<path d="M185.664 220.4H141.958V257.482H185.664V220.4Z" fill="#65617D"/>
<path opacity="0.1" d="M170.629 226.849H157.343V231.148H170.629V226.849Z" fill="black"/>
<path opacity="0.1" d="M168.969 227.386H159.004V230.611H168.969V227.386Z" fill="black"/>
<path d="M230.07 220.4H186.364V257.482H230.07V220.4Z" fill="#FA2300" fill-opacity="0.79"/>
<path opacity="0.1" d="M215.035 226.849H201.748V231.148H215.035V226.849Z" fill="black"/>
<path opacity="0.1" d="M213.374 227.386H203.409V230.611H213.374V227.386Z" fill="black"/>
<path d="M230.07 181.706H186.364V218.788H230.07V181.706Z" fill="#65617D"/>
<path opacity="0.1" d="M215.035 188.155H201.748V192.454H215.035V188.155Z" fill="black"/>
<path opacity="0.1" d="M213.374 188.692H203.409V191.917H213.374V188.692Z" fill="black"/>
<defs>
<linearGradient id="paint0_linear_27_301" x1="306.934" y1="377.939" x2="306.934" y2="118.29" gradientUnits="userSpaceOnUse">
<stop stop-color="#808080" stop-opacity="0.25"/>
<stop offset="0.54" stop-color="#808080" stop-opacity="0.12"/>
<stop offset="1" stop-color="#808080" stop-opacity="0.1"/>
</linearGradient>
</defs>
</svg>
