<svg width="40" height="40" viewBox="0 0 40 40" fill="none" xmlns="http://www.w3.org/2000/svg">
<path d="M36.6667 5H3.33333C1.5 5 0 6.5 0 8.33333V31.6667C0 33.5 1.5 35 3.33333 35H36.6667C38.5 35 39.9833 33.5 39.9833 31.6667L40 8.33333C40 6.5 38.5 5 36.6667 5ZM36.6667 31.6667H3.33333V8.33333H36.6667V31.6667ZM35 10H23.3333V18.3333H35V10ZM33.3333 13.3333L29.1667 16.25L25 13.3333V11.6667L29.1667 14.5833L33.3333 11.6667V13.3333ZM15 20C17.75 20 20 17.75 20 15C20 12.25 17.75 10 15 10C12.25 10 10 12.25 10 15C10 17.75 12.25 20 15 20ZM15 13.3333C15.9167 13.3333 16.6667 14.0833 16.6667 15C16.6667 15.9167 15.9167 16.6667 15 16.6667C14.0833 16.6667 13.3333 15.9167 13.3333 15C13.3333 14.0833 14.0833 13.3333 15 13.3333ZM25 27.65C25 23.4833 18.3833 21.6833 15 21.6833C11.6167 21.6833 5 23.4833 5 27.65V30H25V27.65ZM9.13333 26.6667C10.3667 25.8333 12.8333 25 15 25C17.1667 25 19.6167 25.8167 20.8667 26.6667H9.13333Z" fill="black"/>
</svg>
