<svg width="28" height="29" viewBox="0 0 28 29" fill="none" xmlns="http://www.w3.org/2000/svg">
<path d="M21.9999 19.3876H23.9999V24.4896H21.9999V19.3876ZM17.9999 14.2855H19.9999V24.4896H17.9999V14.2855ZM8.99988 24.4896C7.67428 24.488 6.40344 23.9499 5.4661 22.9935C4.52876 22.037 4.00147 20.7402 3.99988 19.3876H5.99988C5.99988 19.993 6.17583 20.5849 6.50547 21.0883C6.83511 21.5917 7.30365 21.9841 7.85183 22.2158C8.40001 22.4475 9.00321 22.5081 9.58515 22.39C10.1671 22.2718 10.7016 21.9803 11.1212 21.5522C11.5408 21.1241 11.8265 20.5786 11.9422 19.9848C12.058 19.391 11.9986 18.7754 11.7715 18.2161C11.5445 17.6567 11.1599 17.1786 10.6666 16.8422C10.1732 16.5059 9.59322 16.3263 8.99988 16.3263V14.2855C10.326 14.2855 11.5977 14.8231 12.5354 15.7799C13.4731 16.7367 13.9999 18.0344 13.9999 19.3876C13.9999 20.7407 13.4731 22.0384 12.5354 22.9953C11.5977 23.9521 10.326 24.4896 8.99988 24.4896Z" fill="#090234" fill-opacity="0.59"/>
<path d="M26 0H2C1.46973 0.000540282 0.961329 0.215728 0.586371 0.598338C0.211413 0.980948 0.000529477 1.49972 0 2.04082V26.5306C0.000529477 27.0717 0.211413 27.5905 0.586371 27.9731C0.961329 28.3557 1.46973 28.5709 2 28.5714H26C26.5302 28.5706 27.0384 28.3553 27.4133 27.9728C27.7882 27.5902 27.9992 27.0716 28 26.5306V2.04082C27.9995 1.49972 27.7886 0.980948 27.4136 0.598338C27.0387 0.215728 26.5303 0.000540282 26 0ZM26 9.18367H12V2.04082H26V9.18367ZM10 2.04082V9.18367H2V2.04082H10ZM2 26.5306V11.2245H26L26.002 26.5306H2Z" fill="#090234" fill-opacity="0.59"/>
</svg>
