<svg width="28" height="29" viewBox="0 0 28 29" fill="none" xmlns="http://www.w3.org/2000/svg">
<path d="M6.84444 21.0457L11.5889 16.3013L14.7 19.4124L20.2222 13.929V16.379H23.3333V8.60126H15.5556V11.7124H18.0056L14.7 15.0179L11.5889 11.9068L4.66667 18.8679L6.84444 21.0457ZM3.11111 28.8235C2.25556 28.8235 1.52289 28.5191 0.913111 27.9104C0.30437 27.3006 0 26.5679 0 25.7124V3.9346C0 3.07904 0.30437 2.34638 0.913111 1.7366C1.52289 1.12786 2.25556 0.823486 3.11111 0.823486H24.8889C25.7444 0.823486 26.4771 1.12786 27.0869 1.7366C27.6956 2.34638 28 3.07904 28 3.9346V25.7124C28 26.5679 27.6956 27.3006 27.0869 27.9104C26.4771 28.5191 25.7444 28.8235 24.8889 28.8235H3.11111ZM3.11111 25.7124H24.8889V3.9346H3.11111V25.7124Z" fill="#090234" fill-opacity="0.6"/>
</svg>
