<svg width="40" height="40" viewBox="0 0 40 40" fill="none" xmlns="http://www.w3.org/2000/svg">
<path d="M26.6667 0H13.3333C11.5 0 10 1.5 10 3.33333V30C10 31.8333 11.5 33.3333 13.3333 33.3333H33.3333C35.1667 33.3333 36.6667 31.8333 36.6667 30V10L26.6667 0ZM33.3333 30H13.3333V3.33333H25V11.6667H33.3333V30ZM6.66667 6.66667V36.6667H33.3333V40H6.66667C4.83334 40 3.33334 38.5 3.33334 36.6667V6.66667H6.66667ZM16.6667 16.6667V20H30V16.6667H16.6667ZM16.6667 23.3333V26.6667H25V23.3333H16.6667Z" fill="black" fill-opacity="0.8"/>
</svg>
