<svg width="40" height="40" viewBox="0 0 40 40" fill="none" xmlns="http://www.w3.org/2000/svg">
<g clip-path="url(#clip0_62_32)">
<path d="M35.6889 11.1111H4.31112C3.75711 11.1111 3.22579 11.3312 2.83405 11.7229C2.44231 12.1146 2.22223 12.646 2.22223 13.2V33.4666C2.22223 34.0206 2.44231 34.552 2.83405 34.9437C3.22579 35.3354 3.75711 35.5555 4.31112 35.5555H35.6889C36.2429 35.5555 36.7742 35.3354 37.166 34.9437C37.5577 34.552 37.7778 34.0206 37.7778 33.4666V13.2C37.7778 12.646 37.5577 12.1146 37.166 11.7229C36.7742 11.3312 36.2429 11.1111 35.6889 11.1111ZM35.5556 33.3333H4.44445V13.3333H35.5556V33.3333Z" fill="black"/>
<path d="M9.5111 21.6111C10.1704 21.6111 10.8148 21.4156 11.363 21.0494C11.9112 20.6831 12.3384 20.1625 12.5907 19.5534C12.843 18.9443 12.909 18.2741 12.7804 17.6275C12.6518 16.9809 12.3343 16.3869 11.8681 15.9208C11.4019 15.4546 10.808 15.1371 10.1614 15.0085C9.5148 14.8799 8.84457 14.9459 8.23549 15.1982C7.6264 15.4505 7.1058 15.8777 6.73953 16.4259C6.37326 16.9741 6.17776 17.6185 6.17776 18.2778C6.17776 19.1618 6.52895 20.0097 7.15408 20.6348C7.7792 21.2599 8.62704 21.6111 9.5111 21.6111ZM9.5111 16.5C9.86447 16.4912 10.2125 16.5879 10.5106 16.7778C10.8087 16.9677 11.0435 17.2421 11.1849 17.5661C11.3263 17.8901 11.3679 18.2488 11.3044 18.5966C11.2409 18.9443 11.0752 19.2652 10.8284 19.5183C10.5817 19.7714 10.2651 19.9452 9.91904 20.0175C9.57303 20.0897 9.21333 20.0572 8.88588 19.9241C8.55844 19.7909 8.27812 19.5632 8.08074 19.2699C7.88336 18.9767 7.77788 18.6313 7.77777 18.2778C7.77762 17.8139 7.95881 17.3683 8.28265 17.0362C8.6065 16.704 9.04735 16.5116 9.5111 16.5Z" fill="black"/>
<path d="M8.77779 31.1111L15.4445 24.4445L18.9778 27.9778L15.8445 31.1111H18.0667L26.3556 22.8222L33.3333 29.7445V27.5222L26.8889 21.1111C26.7411 20.9646 26.5415 20.8823 26.3333 20.8823C26.1252 20.8823 25.9255 20.9646 25.7778 21.1111L20.0445 26.8445L15.9667 22.7778C15.8189 22.6312 15.6192 22.549 15.4111 22.549C15.203 22.549 15.0033 22.6312 14.8556 22.7778L6.57779 31.1111H8.77779Z" fill="black"/>
<path d="M33.4889 3.33328C33.4889 3.03859 33.3718 2.75598 33.1635 2.5476C32.9551 2.33923 32.6725 2.22217 32.3778 2.22217H7.93335C7.63866 2.22217 7.35605 2.33923 7.14767 2.5476C6.9393 2.75598 6.82224 3.03859 6.82224 3.33328V4.44439H33.4889V3.33328Z" fill="black"/>
<path d="M35.6889 7.77774C35.6889 7.48305 35.5718 7.20044 35.3635 6.99206C35.1551 6.78369 34.8725 6.66663 34.5778 6.66663H5.6889C5.39422 6.66663 5.1116 6.78369 4.90323 6.99206C4.69485 7.20044 4.57779 7.48305 4.57779 7.77774V8.88885H35.6889V7.77774Z" fill="black"/>
</g>
<defs>
<clipPath id="clip0_62_32">
<rect width="40" height="40" fill="white"/>
</clipPath>
</defs>
</svg>
