<svg width="32" height="32" viewBox="0 0 32 32" fill="none" xmlns="http://www.w3.org/2000/svg">
<path d="M29.3 2H2.7C2.3136 2 2 2.3416 2 2.763V9.637C2 10.0584 2.3136 10.4 2.7 10.4H29.3C29.6864 10.4 30 10.0584 30 9.637V2.763C30 2.3423 29.6864 2 29.3 2ZM29.3 21.6H2.7C2.3136 21.6 2 21.9416 2 22.363V29.237C2 29.6584 2.3136 30 2.7 30H29.3C29.6864 30 30 29.6584 30 29.237V22.363C30 21.9416 29.6864 21.6 29.3 21.6Z" stroke="#090234" stroke-opacity="0.56" stroke-width="3.33333" stroke-linejoin="round"/>
<path d="M9 10.3998V16.0054L23 16.0124V21.5998M11.8 25.7998H20.2M11.8 6.19983H20.2" stroke="#090234" stroke-opacity="0.56" stroke-width="3.33333" stroke-linecap="round" stroke-linejoin="round"/>
</svg>
