<svg width="445" height="287" viewBox="0 0 445 287" fill="none" xmlns="http://www.w3.org/2000/svg">
<path d="M67.7726 52.0085C83.2027 45.6069 102.421 49.6629 121.19 52.4779C121.365 49.0689 123.482 44.9199 121.264 42.5416C118.57 39.6522 118.818 36.6162 120.439 33.5627C124.585 25.7545 118.645 17.4462 112.648 10.5379C111.296 8.98429 109.588 7.76361 107.661 6.975C105.735 6.18639 103.645 5.85208 101.562 5.99922L90.4522 6.77325C87.7489 6.9616 85.1689 7.95079 83.0576 9.60846C80.9463 11.2661 79.4044 13.5132 78.6382 16.049C75.9854 19.5681 74.5656 23.0775 75.4595 26.5686C71.4862 29.2173 70.8186 32.4144 72.6041 36.0186C74.1181 38.288 74.102 40.497 72.5352 42.6448C70.4776 45.3832 68.9016 48.4366 67.8719 51.6797L67.7726 52.0085Z" fill="#2F2E41"/>
<path d="M88.6633 287C137.631 287 177.327 284.059 177.327 280.432C177.327 276.804 137.631 273.863 88.6633 273.863C39.6959 273.863 0 276.804 0 280.432C0 284.059 39.6959 287 88.6633 287Z" fill="#E6E6E6"/>
<path d="M434.455 246.074H119.971C117.174 246.074 114.492 244.99 112.515 243.062C110.537 241.133 109.426 238.516 109.426 235.788C223.427 222.865 335.285 222.865 445 235.788C445 238.516 443.889 241.133 441.912 243.062C439.934 244.99 437.252 246.074 434.455 246.074Z" fill="#8E8D97"/>
<path d="M445 236.394L109.426 235.789L148.318 171.957L148.504 171.654V30.9769C148.504 29.2694 148.849 27.5785 149.519 26.001C150.188 24.4234 151.17 22.99 152.408 21.7826C153.646 20.5752 155.115 19.6174 156.733 18.9641C158.35 18.3107 160.084 17.9745 161.834 17.9746H390.731C392.482 17.9745 394.215 18.3107 395.833 18.9641C397.45 19.6174 398.919 20.5752 400.157 21.7826C401.395 22.99 402.377 24.4234 403.047 26.001C403.717 27.5785 404.061 29.2694 404.061 30.9769V172.622L445 236.394Z" fill="#F5F2EA"/>
<path d="M161.53 27.0502C160.379 27.0514 159.275 27.4981 158.461 28.292C157.647 29.086 157.189 30.1626 157.188 31.2854V159.554C157.189 160.676 157.647 161.753 158.461 162.547C159.275 163.341 160.379 163.788 161.53 163.789H392.896C394.047 163.788 395.151 163.341 395.965 162.547C396.779 161.753 397.237 160.676 397.238 159.554V31.2854C397.237 30.1626 396.779 29.0861 395.965 28.2921C395.151 27.4981 394.047 27.0515 392.896 27.0502H161.53Z" fill="white"/>
<path d="M162.5 180.73C162.144 180.731 161.796 180.83 161.496 181.018C161.197 181.205 160.958 181.472 160.809 181.786L148.825 207.198C148.695 207.475 148.638 207.779 148.659 208.082C148.681 208.386 148.78 208.68 148.949 208.936C149.117 209.192 149.349 209.403 149.623 209.549C149.896 209.695 150.203 209.772 150.516 209.772H402.528C402.845 209.772 403.157 209.693 403.434 209.542C403.711 209.391 403.944 209.174 404.111 208.911C404.278 208.648 404.373 208.347 404.387 208.038C404.401 207.729 404.334 207.422 404.192 207.145L391.166 181.733C391.012 181.431 390.775 181.177 390.481 181C390.187 180.822 389.848 180.729 389.502 180.73H162.5Z" fill="#737379"/>
<path d="M251.512 214.612C251.103 214.613 250.705 214.744 250.381 214.987C250.056 215.23 249.822 215.57 249.715 215.955L246.709 226.846C246.635 227.115 246.625 227.397 246.681 227.67C246.736 227.944 246.855 228.201 247.029 228.422C247.203 228.643 247.426 228.822 247.682 228.946C247.938 229.069 248.22 229.133 248.506 229.133H305.674C305.97 229.133 306.263 229.064 306.526 228.931C306.79 228.799 307.017 228.606 307.189 228.371C307.361 228.135 307.473 227.863 307.515 227.576C307.557 227.29 307.529 226.998 307.431 226.724L303.567 215.833C303.44 215.477 303.203 215.168 302.887 214.949C302.572 214.73 302.195 214.612 301.808 214.612H251.512Z" fill="#7B7B85"/>
<path d="M404.061 169.537V171.957H148.318L148.51 171.655V169.537H404.061Z" fill="#2F2E41"/>
<path d="M414.916 45.8064H378.94C378.282 45.8058 377.651 45.5506 377.186 45.0969C376.721 44.6431 376.459 44.0279 376.459 43.3862V22.2099C376.459 21.5682 376.721 20.9531 377.186 20.4993C377.651 20.0456 378.282 19.7904 378.94 19.7897H414.916C415.574 19.7904 416.205 20.0456 416.67 20.4993C417.135 20.9531 417.397 21.5682 417.397 22.2099V43.3862C417.397 44.0279 417.135 44.6431 416.67 45.0969C416.205 45.5506 415.574 45.8058 414.916 45.8064ZM378.94 22.2099V43.3862H414.918L414.916 22.2099L378.94 22.2099Z" fill="#B8AFAF"/>
<path d="M408.093 22.2099H385.763V12.5292C385.763 5.51754 390.459 0.428467 396.928 0.428467C403.397 0.428467 408.093 5.51754 408.093 12.5292L408.093 22.2099ZM388.244 19.7897H405.612V12.5292C405.612 6.82951 402.041 2.84863 396.928 2.84863C391.815 2.84863 388.244 6.82953 388.244 12.5292L388.244 19.7897Z" fill="#B8AFAF"/>
<path d="M396.928 34.6132C398.298 34.6132 399.409 33.5296 399.409 32.193C399.409 30.8564 398.298 29.7729 396.928 29.7729C395.558 29.7729 394.447 30.8564 394.447 32.193C394.447 33.5296 395.558 34.6132 396.928 34.6132Z" fill="white"/>
<path d="M147.878 99.0321L114.824 116.173L114.406 101.889C125.194 100.132 135.458 97.0736 144.949 92.0941L148.406 83.7631C148.783 82.8553 149.395 82.0587 150.183 81.4514C150.97 80.8441 151.906 80.4471 152.899 80.2992C153.892 80.1514 154.906 80.2578 155.844 80.6081C156.782 80.9584 157.61 81.5405 158.247 82.2973C159.179 83.4045 159.645 84.816 159.551 86.2459C159.456 87.6758 158.808 89.0171 157.737 89.9981L147.878 99.0321Z" fill="#FFB8B8"/>
<path d="M67.1138 197.999C66.8726 197.136 66.8214 196.233 66.9635 195.35C67.1056 194.467 67.4378 193.623 67.9383 192.874L75.1993 182.004C76.9167 179.433 79.5519 177.576 82.5937 176.794C85.6354 176.011 88.8668 176.358 91.6609 177.768C88.6093 182.835 89.0347 187.279 92.7148 191.142C87.0019 193.863 81.7218 197.374 77.0382 201.567C76.1832 202.135 75.2012 202.496 74.1742 202.62C73.1471 202.743 72.1047 202.626 71.1337 202.276C70.1627 201.927 69.2913 201.357 68.5921 200.613C67.8928 199.869 67.386 198.973 67.1138 197.999Z" fill="#2F2E41"/>
<path d="M149.384 183.787C148.285 185.573 146.734 187.054 144.879 188.087C143.025 189.12 140.929 189.671 138.794 189.687L90.5565 190.043L88.4645 178.208L109.803 172.086L91.8117 158.618L111.477 136.171L147.195 168.643C149.282 170.541 150.639 173.081 151.037 175.837C151.435 178.594 150.852 181.4 149.384 183.787Z" fill="#2F2E41" fill-opacity="0.6"/>
<path d="M83.0251 264.73H71.7282C61.5852 196.912 51.2605 128.905 81.7699 103.521L117.753 109.235L113.15 139.028L93.0669 161.475L83.0251 264.73Z" fill="#838386"/>
<path d="M109.803 58.2199L88.8828 53.3225C92.3573 46.3852 92.6435 38.666 90.9748 30.4676L105.201 30.0595C105.646 40.2545 106.995 49.7791 109.803 58.2199Z" fill="#FFB8B8"/>
<path d="M115.553 121.523C100.324 131.646 89.5631 121.87 81.3516 106.786C82.4926 97.5568 80.6451 86.5116 77.2233 74.5102C75.7015 69.2167 76.2696 63.559 78.8155 58.6542C81.3615 53.7494 85.7001 49.9538 90.9749 48.0169L108.966 55.3631C124.243 67.5094 127.25 80.6663 121.519 94.5428L115.553 121.523Z" fill="#D2D1D4"/>
<path d="M71.7282 68.423L54.9919 76.9935L84.6987 94.1346L88.8323 104.08C89.1081 104.744 89.2425 105.455 89.2273 106.172C89.212 106.888 89.0473 107.593 88.7434 108.245C88.4394 108.897 88.0024 109.482 87.4592 109.964C86.916 110.446 86.2778 110.815 85.5836 111.049C84.7944 111.314 83.953 111.398 83.1252 111.293C82.2974 111.188 81.5057 110.898 80.8121 110.445C80.1185 109.992 79.5418 109.388 79.1272 108.682C78.7125 107.975 78.4713 107.184 78.4223 106.372L78.0043 99.4402L40.2473 87.2867C38.9751 86.8772 37.8152 86.1907 36.8554 85.2792C35.8955 84.3677 35.1609 83.2551 34.7071 82.0256C34.0457 80.2336 34.0121 78.2782 34.6114 76.4654C35.2107 74.6527 36.4093 73.0849 38.0194 72.0074L68.3809 51.69L71.7282 68.423Z" fill="#FFB8B8"/>
<path d="M88.4644 70.0555C81.4844 67.0717 75.1372 70.313 67.1258 72.9123L65.8705 51.2819C73.8256 47.1461 81.4102 46.0311 88.4645 49.2413L88.4644 70.0555Z" fill="#D2D1D4"/>
<path d="M96.8141 40.7738C104.191 40.7738 110.171 34.9408 110.171 27.7453C110.171 20.5499 104.191 14.7168 96.8141 14.7168C89.4373 14.7168 83.4573 20.5499 83.4573 27.7453C83.4573 34.9408 89.4373 40.7738 96.8141 40.7738Z" fill="#FFB8B8"/>
<path d="M112.793 26.1014C99.5689 27.3648 89.492 25.2552 83.0518 19.2484V14.4109H111.671L112.793 26.1014Z" fill="#2F2E41"/>
<path d="M92.9557 280.092C92.0714 280.328 91.146 280.378 90.2404 280.239C89.3348 280.1 88.4695 279.776 87.7015 279.288L75.4353 277.68C72.7996 276.005 70.8957 273.435 70.093 270.468C69.2903 267.501 69.6461 264.349 71.0914 261.623C76.286 264.6 80.8427 264.184 84.8025 260.595C87.6004 266.105 92.2104 265.769 96.613 270.412C97.196 271.246 97.5662 272.203 97.6928 273.205C97.8194 274.207 97.6988 275.224 97.341 276.171C96.9832 277.118 96.3985 277.968 95.6357 278.65C94.8729 279.332 93.9541 279.827 92.9557 280.092Z" fill="#51515A"/>
</svg>
