<svg width="445" height="293" viewBox="0 0 445 293" fill="none" xmlns="http://www.w3.org/2000/svg">
<path d="M67.7726 58.0085C83.2027 51.6069 102.421 55.6629 121.19 58.4779C121.365 55.0689 123.482 50.9199 121.264 48.5416C118.57 45.6522 118.818 42.6162 120.439 39.5627C124.585 31.7545 118.645 23.4462 112.648 16.5379C111.296 14.9843 109.588 13.7636 107.661 12.975C105.735 12.1864 103.645 11.8521 101.562 11.9992L90.4522 12.7733C87.7489 12.9616 85.1689 13.9508 83.0576 15.6085C80.9463 17.2661 79.4044 19.5132 78.6382 22.049C75.9854 25.5681 74.5656 29.0775 75.4595 32.5686C71.4862 35.2173 70.8186 38.4144 72.6041 42.0186C74.1181 44.288 74.102 46.497 72.5352 48.6448C70.4776 51.3832 68.9016 54.4366 67.8719 57.6797L67.7726 58.0085Z" fill="#2F2E41"/>
<path d="M88.6633 293C137.631 293 177.327 290.059 177.327 286.432C177.327 282.804 137.631 279.863 88.6633 279.863C39.6959 279.863 0 282.804 0 286.432C0 290.059 39.6959 293 88.6633 293Z" fill="#E6E6E6"/>
<path d="M434.455 252.074H119.971C117.174 252.074 114.492 250.99 112.515 249.062C110.537 247.133 109.426 244.516 109.426 241.788C223.427 228.865 335.285 228.865 445 241.788C445 244.516 443.889 247.133 441.912 249.062C439.934 250.99 437.252 252.074 434.455 252.074Z" fill="#8E8D97"/>
<path d="M445 242.394L109.426 241.789L148.318 177.957L148.504 177.654V36.9769C148.504 35.2694 148.849 33.5785 149.519 32.001C150.188 30.4234 151.17 28.99 152.408 27.7826C153.646 26.5752 155.115 25.6174 156.733 24.9641C158.35 24.3107 160.084 23.9745 161.834 23.9746H390.731C392.482 23.9745 394.215 24.3107 395.833 24.9641C397.45 25.6174 398.92 26.5752 400.157 27.7826C401.395 28.99 402.377 30.4234 403.047 32.001C403.717 33.5785 404.061 35.2694 404.061 36.9769V178.622L445 242.394Z" fill="#F5F2EA"/>
<path d="M161.53 33.0502C160.379 33.0514 159.275 33.4981 158.461 34.292C157.647 35.086 157.189 36.1626 157.188 37.2854V165.554C157.189 166.677 157.647 167.753 158.461 168.547C159.275 169.341 160.379 169.788 161.53 169.789H392.896C394.047 169.788 395.151 169.341 395.965 168.547C396.779 167.753 397.237 166.676 397.238 165.554V37.2854C397.237 36.1626 396.779 35.0861 395.965 34.2921C395.151 33.4981 394.047 33.0515 392.896 33.0502H161.53Z" fill="white"/>
<path d="M162.5 186.73C162.144 186.731 161.796 186.83 161.496 187.018C161.197 187.205 160.958 187.472 160.809 187.786L148.825 213.198C148.695 213.475 148.638 213.779 148.659 214.082C148.681 214.386 148.78 214.68 148.949 214.936C149.117 215.192 149.349 215.403 149.623 215.549C149.896 215.695 150.203 215.772 150.516 215.772H402.528C402.845 215.772 403.157 215.693 403.434 215.542C403.711 215.391 403.944 215.174 404.111 214.911C404.278 214.648 404.373 214.347 404.387 214.038C404.401 213.729 404.334 213.422 404.192 213.145L391.166 187.733C391.012 187.431 390.775 187.177 390.481 187C390.187 186.822 389.848 186.729 389.502 186.73H162.5Z" fill="#737379"/>
<path d="M251.512 220.612C251.103 220.613 250.705 220.744 250.381 220.987C250.056 221.23 249.822 221.57 249.715 221.955L246.709 232.846C246.635 233.115 246.625 233.397 246.681 233.67C246.736 233.944 246.855 234.201 247.029 234.422C247.203 234.643 247.426 234.822 247.682 234.946C247.938 235.069 248.22 235.133 248.506 235.133H305.674C305.97 235.133 306.263 235.064 306.526 234.931C306.79 234.799 307.017 234.606 307.189 234.371C307.361 234.135 307.473 233.863 307.515 233.576C307.557 233.29 307.529 232.998 307.431 232.724L303.567 221.833C303.44 221.477 303.203 221.168 302.887 220.949C302.572 220.73 302.195 220.612 301.808 220.612H251.512Z" fill="#7B7B85"/>
<path d="M404.061 175.537V177.957H148.318L148.51 177.655V175.537H404.061Z" fill="#2F2E41"/>
<path d="M414.916 51.8064H378.94C378.282 51.8058 377.651 51.5506 377.186 51.0969C376.721 50.6431 376.459 50.0279 376.459 49.3862V28.2099C376.459 27.5682 376.721 26.9531 377.186 26.4993C377.651 26.0456 378.282 25.7904 378.94 25.7897H414.916C415.574 25.7904 416.205 26.0456 416.67 26.4993C417.135 26.9531 417.397 27.5682 417.397 28.2099V49.3862C417.397 50.0279 417.135 50.6431 416.67 51.0969C416.205 51.5506 415.574 51.8058 414.916 51.8064ZM378.94 28.2099V49.3862H414.918L414.916 28.2099L378.94 28.2099Z" fill="#B8AFAF"/>
<path d="M408.093 28.2099H385.763V18.5292C385.763 11.5175 390.459 6.42847 396.928 6.42847C403.397 6.42847 408.093 11.5175 408.093 18.5292L408.093 28.2099ZM388.244 25.7897H405.612V18.5292C405.612 12.8295 402.041 8.84863 396.928 8.84863C391.815 8.84863 388.244 12.8295 388.244 18.5292L388.244 25.7897Z" fill="#B8AFAF"/>
<path d="M396.928 40.6132C398.298 40.6132 399.409 39.5296 399.409 38.193C399.409 36.8564 398.298 35.7729 396.928 35.7729C395.558 35.7729 394.447 36.8564 394.447 38.193C394.447 39.5296 395.558 40.6132 396.928 40.6132Z" fill="white"/>
<path d="M147.878 105.032L114.824 122.173L114.406 107.889C125.194 106.132 135.458 103.074 144.949 98.0941L148.406 89.7631C148.783 88.8553 149.395 88.0587 150.183 87.4514C150.97 86.8441 151.906 86.4471 152.899 86.2992C153.892 86.1514 154.906 86.2578 155.844 86.6081C156.782 86.9584 157.61 87.5405 158.247 88.2973C159.179 89.4045 159.645 90.816 159.551 92.2459C159.456 93.6758 158.808 95.0171 157.737 95.9981L147.878 105.032Z" fill="#FFB8B8"/>
<path d="M67.1138 203.999C66.8726 203.136 66.8214 202.233 66.9635 201.35C67.1056 200.467 67.4378 199.623 67.9383 198.874L75.1993 188.004C76.9167 185.433 79.5519 183.576 82.5937 182.794C85.6354 182.011 88.8668 182.358 91.6609 183.768C88.6093 188.835 89.0347 193.279 92.7148 197.142C87.0019 199.863 81.7218 203.374 77.0382 207.567C76.1832 208.135 75.2012 208.496 74.1742 208.62C73.1471 208.743 72.1047 208.626 71.1337 208.276C70.1627 207.927 69.2913 207.357 68.5921 206.613C67.8928 205.869 67.386 204.973 67.1138 203.999Z" fill="#2F2E41"/>
<path d="M149.384 189.787C148.285 191.573 146.734 193.054 144.879 194.087C143.025 195.12 140.929 195.671 138.794 195.687L90.5565 196.043L88.4645 184.208L109.803 178.086L91.8117 164.618L111.477 142.171L147.195 174.643C149.282 176.541 150.639 179.081 151.037 181.837C151.435 184.594 150.852 187.4 149.384 189.787Z" fill="#2F2E41" fill-opacity="0.6"/>
<path d="M83.0251 270.73H71.7282C61.5852 202.912 51.2605 134.905 81.7699 109.521L117.753 115.235L113.15 145.028L93.0669 167.475L83.0251 270.73Z" fill="#838386"/>
<path d="M109.803 64.2199L88.8828 59.3225C92.3573 52.3852 92.6435 44.666 90.9748 36.4676L105.201 36.0595C105.646 46.2545 106.995 55.7791 109.803 64.2199Z" fill="#FFB8B8"/>
<path d="M115.553 127.523C100.324 137.646 89.5631 127.87 81.3516 112.786C82.4926 103.557 80.6451 92.5116 77.2233 80.5102C75.7015 75.2167 76.2696 69.559 78.8155 64.6542C81.3615 59.7494 85.7001 55.9538 90.9749 54.0169L108.966 61.3631C124.243 73.5094 127.25 86.6663 121.519 100.543L115.553 127.523Z" fill="#D2D1D4"/>
<path d="M71.7282 74.423L54.9919 82.9935L84.6987 100.135L88.8323 110.08C89.1081 110.744 89.2425 111.455 89.2273 112.172C89.212 112.888 89.0473 113.593 88.7434 114.245C88.4394 114.897 88.0024 115.482 87.4592 115.964C86.916 116.446 86.2778 116.815 85.5836 117.049C84.7944 117.314 83.953 117.398 83.1252 117.293C82.2974 117.188 81.5057 116.898 80.8121 116.445C80.1185 115.992 79.5418 115.388 79.1272 114.682C78.7125 113.975 78.4713 113.184 78.4223 112.372L78.0043 105.44L40.2473 93.2867C38.9751 92.8772 37.8152 92.1907 36.8554 91.2792C35.8955 90.3677 35.1609 89.2551 34.7071 88.0256C34.0457 86.2336 34.0121 84.2782 34.6114 82.4654C35.2107 80.6527 36.4093 79.0849 38.0194 78.0074L68.3809 57.69L71.7282 74.423Z" fill="#FFB8B8"/>
<path d="M88.4644 76.0555C81.4844 73.0717 75.1372 76.313 67.1258 78.9123L65.8705 57.2819C73.8256 53.1461 81.4102 52.0311 88.4645 55.2413L88.4644 76.0555Z" fill="#D2D1D4"/>
<path d="M96.8141 46.7738C104.191 46.7738 110.171 40.9408 110.171 33.7453C110.171 26.5499 104.191 20.7168 96.8141 20.7168C89.4373 20.7168 83.4573 26.5499 83.4573 33.7453C83.4573 40.9408 89.4373 46.7738 96.8141 46.7738Z" fill="#FFB8B8"/>
<path d="M112.793 32.1014C99.5689 33.3648 89.492 31.2552 83.0518 25.2484V20.4109H111.671L112.793 32.1014Z" fill="#2F2E41"/>
<path d="M92.9557 286.092C92.0714 286.328 91.146 286.378 90.2404 286.239C89.3348 286.1 88.4695 285.776 87.7015 285.288L75.4353 283.68C72.7996 282.005 70.8957 279.435 70.093 276.468C69.2903 273.501 69.6461 270.349 71.0914 267.623C76.286 270.6 80.8427 270.184 84.8025 266.595C87.6004 272.105 92.2104 271.769 96.613 276.412C97.196 277.246 97.5662 278.203 97.6928 279.205C97.8194 280.207 97.6988 281.224 97.341 282.171C96.9832 283.118 96.3985 283.968 95.6357 284.65C94.873 285.332 93.9541 285.827 92.9557 286.092Z" fill="#51515A"/>
<path d="M147.112 34.7012C145.861 35.4083 144.556 34.6334 144.008 32.8588C143.453 31.057 143.972 29.2281 145.243 28.5096C146.514 27.7912 147.796 28.568 148.361 30.3988C148.917 32.2021 148.403 33.9713 147.112 34.7012ZM144.716 24.9632L143.721 25.5255C143.473 25.6642 143.195 25.6717 142.942 25.5464C142.69 25.4211 142.482 25.1722 142.358 24.8489L142.309 24.7186C141.239 22.1059 141.117 18.9306 141.947 15.2857C142.716 12.0161 143.036 9.71666 142.393 7.63343C141.65 5.22484 140.064 4.47035 138.041 5.56332C137.256 6.00686 137.006 5.99979 136.389 6.82902C136.254 7.01159 136.094 7.15567 135.918 7.25268C135.741 7.34968 135.552 7.39762 135.362 7.39364C135.178 7.39071 134.996 7.33765 134.828 7.23762C134.659 7.1376 134.508 6.99266 134.381 6.81146C134.138 6.46224 134.002 6.0011 134 5.52116C133.998 5.04122 134.131 4.57824 134.372 4.22572C135.41 2.75495 136.661 1.59137 138.048 0.808432C142.395 -1.64866 144.584 1.97888 145.585 5.2252C146.565 8.40046 146.014 11.3466 145.128 15.1621C144.386 18.3325 144.43 20.6818 145.272 23.0177C145.333 23.1943 145.367 23.3857 145.372 23.5805C145.377 23.7752 145.352 23.9693 145.3 24.151C145.248 24.3327 145.17 24.4983 145.069 24.6379C144.969 24.7775 144.849 24.8882 144.716 24.9632Z" fill="#090234"/>
<path d="M215.731 89.8029C217.788 87.0181 220.54 85.5 223.365 85.5H329.546C332.371 85.5 335.123 87.0181 337.18 89.8029C339.239 92.5903 340.411 96.3953 340.411 100.384C340.411 104.372 339.239 108.177 337.18 110.964C335.123 113.749 332.371 115.267 329.546 115.267H223.365C220.54 115.267 217.788 113.749 215.731 110.964C213.672 108.177 212.5 104.372 212.5 100.384C212.5 96.3953 213.672 92.5903 215.731 89.8029Z" fill="white" stroke="#D2D1D4"/>
<path d="M246.819 109.582H225.693C225.625 109.583 225.559 109.565 225.497 109.531C225.435 109.497 225.378 109.446 225.33 109.382C225.283 109.318 225.245 109.242 225.219 109.158C225.193 109.074 225.18 108.984 225.18 108.893C225.18 108.803 225.193 108.713 225.219 108.629C225.245 108.545 225.283 108.469 225.33 108.405C225.378 108.341 225.435 108.29 225.497 108.256C225.559 108.221 225.625 108.204 225.693 108.205H246.819C246.953 108.206 247.082 108.279 247.176 108.408C247.271 108.537 247.324 108.711 247.324 108.893C247.324 109.075 247.271 109.25 247.176 109.379C247.082 109.508 246.953 109.581 246.819 109.582Z" fill="#3F3D56"/>
<path d="M273.619 109.812H252.492C252.425 109.812 252.359 109.795 252.297 109.761C252.234 109.726 252.178 109.676 252.13 109.612C252.083 109.548 252.045 109.472 252.019 109.388C251.993 109.304 251.98 109.214 251.98 109.123C251.98 109.032 251.993 108.942 252.019 108.858C252.045 108.774 252.083 108.698 252.13 108.634C252.178 108.57 252.234 108.52 252.297 108.485C252.359 108.451 252.425 108.434 252.492 108.434H273.619C273.686 108.434 273.752 108.451 273.814 108.485C273.877 108.52 273.933 108.57 273.981 108.634C274.028 108.698 274.066 108.774 274.092 108.858C274.118 108.942 274.131 109.032 274.131 109.123C274.131 109.214 274.118 109.304 274.092 109.388C274.066 109.472 274.028 109.548 273.981 109.612C273.933 109.676 273.877 109.726 273.814 109.761C273.752 109.795 273.686 109.812 273.619 109.812Z" fill="#3F3D56"/>
<path d="M303.624 110.041H282.498C282.363 110.04 282.235 109.967 282.14 109.838C282.046 109.709 281.992 109.534 281.992 109.353C281.992 109.171 282.046 108.996 282.14 108.867C282.235 108.738 282.363 108.665 282.498 108.664H303.624C303.691 108.663 303.758 108.681 303.82 108.715C303.882 108.749 303.939 108.8 303.986 108.864C304.034 108.928 304.072 109.004 304.097 109.088C304.123 109.172 304.136 109.262 304.136 109.353C304.136 109.443 304.123 109.533 304.097 109.617C304.072 109.701 304.034 109.777 303.986 109.841C303.939 109.905 303.882 109.956 303.82 109.99C303.758 110.025 303.691 110.042 303.624 110.041Z" fill="#3F3D56"/>
<path d="M330.424 110.271H309.298C309.163 110.27 309.035 110.197 308.94 110.068C308.845 109.939 308.792 109.764 308.792 109.582C308.792 109.4 308.845 109.226 308.94 109.097C309.035 108.968 309.163 108.895 309.298 108.893H330.424C330.558 108.895 330.687 108.968 330.781 109.097C330.876 109.226 330.929 109.4 330.929 109.582C330.929 109.764 330.876 109.939 330.781 110.068C330.687 110.197 330.558 110.27 330.424 110.271Z" fill="#3F3D56"/>
<path d="M236.209 103.243C238.378 103.243 240.136 100.863 240.136 97.9278C240.136 94.9924 238.378 92.6127 236.209 92.6127C234.041 92.6127 232.283 94.9924 232.283 97.9278C232.283 100.863 234.041 103.243 236.209 103.243Z" fill="#3F3D56"/>
<path d="M263.171 103.243C265.339 103.243 267.097 100.863 267.097 97.9278C267.097 94.9924 265.339 92.6127 263.171 92.6127C261.002 92.6127 259.244 94.9924 259.244 97.9278C259.244 100.863 261.002 103.243 263.171 103.243Z" fill="#3F3D56"/>
<path d="M290.133 103.243C292.301 103.243 294.059 100.863 294.059 97.9278C294.059 94.9924 292.301 92.6127 290.133 92.6127C287.964 92.6127 286.206 94.9924 286.206 97.9278C286.206 100.863 287.964 103.243 290.133 103.243Z" fill="#3F3D56"/>
<path d="M317.094 103.243C319.263 103.243 321.021 100.863 321.021 97.9278C321.021 94.9924 319.263 92.6127 317.094 92.6127C314.926 92.6127 313.168 94.9924 313.168 97.9278C313.168 100.863 314.926 103.243 317.094 103.243Z" fill="#3F3D56"/>
</svg>
