<svg width="207" height="95" viewBox="0 0 207 95" fill="none" xmlns="http://www.w3.org/2000/svg">
<path d="M167.282 93.835H152.368C150.553 93.835 149.075 92.8666 149.075 91.6761V37.1402C149.075 35.9498 150.553 34.9814 152.368 34.9814H167.282C169.098 34.9814 170.575 35.9498 170.575 37.1402V91.6761C170.575 92.8666 169.098 93.835 167.282 93.835Z" fill="#FA2300" fill-opacity="0.4"/>
<path d="M117.976 61.6965C116.509 61.6965 115.315 62.4791 115.315 63.4408V91.6152C115.315 92.5769 116.509 93.3595 117.976 93.3595H132.89C134.357 93.3595 135.55 92.5769 135.55 91.6152V63.4408C135.55 62.4791 134.357 61.6965 132.89 61.6965H117.976Z" fill="#FA2300" fill-opacity="0.4"/>
<path d="M201.675 93.835H186.761C184.945 93.835 183.468 92.8666 183.468 91.6761V2.30157C183.468 1.11111 184.945 0.1427 186.761 0.1427H201.675C203.49 0.1427 204.968 1.1111 204.968 2.30157V91.6761C204.968 92.8665 203.49 93.835 201.675 93.835Z" fill="#FA2300" fill-opacity="0.4"/>
<path d="M35.2491 82.3725H4.89204C2.86617 82.3725 1.21777 80.9725 1.21777 79.2518C1.21777 77.5312 2.86618 76.1317 4.89204 76.1317H35.2491C37.275 76.1317 38.9227 77.5312 38.9227 79.2518C38.9227 80.9725 37.275 82.3725 35.2491 82.3725Z" fill="#FA2300" fill-opacity="0.3"/>
<path d="M35.2491 38.1396H4.89204C2.86617 38.1396 1.21777 36.7395 1.21777 35.0188C1.21777 33.2982 2.86618 31.8988 4.89204 31.8988H35.2491C37.275 31.8988 38.9227 33.2982 38.9227 35.0188C38.9227 36.7395 37.275 38.1396 35.2491 38.1396Z" fill="#FA2300" fill-opacity="0.3"/>
<path d="M35.2491 6.24079H4.89204C2.86617 6.24079 1.21777 4.84071 1.21777 3.12007C1.21777 1.39944 2.86618 0 4.89204 0H35.2491C37.275 0 38.9227 1.39941 38.9227 3.12007C38.9227 4.84074 37.275 6.24079 35.2491 6.24079Z" fill="#FA2300" fill-opacity="0.3"/>
<path d="M0 93.9893C0 94.5499 0.53003 95 1.19006 95H205.48C206.14 95 206.67 94.5499 206.67 93.9893C206.67 93.4287 206.14 92.9786 205.48 92.9786H1.19006C0.53003 92.9786 0 93.4287 0 93.9893Z" fill="#FA2300" fill-opacity="0.4"/>
</svg>
