<svg width="40" height="40" viewBox="0 0 40 40" fill="none" xmlns="http://www.w3.org/2000/svg">
<path d="M18.3333 6.66663V16.6666C18.3333 18.5075 14.9755 20 10.8333 20C6.69121 20 3.33334 18.5075 3.33334 16.6666V6.66663" stroke="black" stroke-width="2" stroke-linecap="round" stroke-linejoin="round"/>
<path d="M18.3333 11.6666C18.3333 13.5075 14.9755 15 10.8333 15C6.69121 15 3.33334 13.5075 3.33334 11.6666" stroke="black" stroke-width="2" stroke-linecap="round" stroke-linejoin="round"/>
<path d="M18.3333 6.66671C18.3333 8.50762 14.9755 10 10.8333 10C6.69121 10 3.33334 8.50762 3.33334 6.66671C3.33334 4.82576 6.69121 3.33337 10.8333 3.33337C14.9755 3.33337 18.3333 4.82576 18.3333 6.66671Z" stroke="black" stroke-width="2" stroke-linecap="round" stroke-linejoin="round"/>
<path d="M26.6667 5H31.6667C33.5076 5 35 6.49238 35 8.33333V13.3333" stroke="black" stroke-width="2" stroke-linecap="round" stroke-linejoin="round"/>
<path d="M13.3333 35H8.33333C6.49238 35 5 33.5075 5 31.6666V26.6666" stroke="black" stroke-width="2" stroke-linecap="round" stroke-linejoin="round"/>
<path d="M29.1667 31.6666V36.6666" stroke="black" stroke-width="2" stroke-linecap="round" stroke-linejoin="round"/>
<path d="M34.1667 36.6666H29.1667H24.1667" stroke="black" stroke-width="2" stroke-linecap="round" stroke-linejoin="round"/>
<path d="M36.6667 31.6666V21.6666H21.6667V31.6666H36.6667Z" stroke="black" stroke-width="2" stroke-linecap="round" stroke-linejoin="round"/>
</svg>
