<svg width="888" height="268" viewBox="0 0 888 268" fill="none" xmlns="http://www.w3.org/2000/svg">
<path d="M620.686 171.03L620.116 171.811L660.821 199.15L669.889 186.721L692.311 201.781L711.858 174.988L758.689 206.443L773.803 185.727L820.35 216.99L838.889 191.579L886.739 223.716L887.309 222.935L838.656 190.259L820.117 215.67L773.57 184.407L758.457 205.122L711.625 173.668L692.078 200.46L669.656 185.4L660.589 197.83L620.686 171.03Z" fill="#97969F" fill-opacity="0.69"/>
<path d="M714.552 180.331C717.768 179.764 719.933 176.796 719.388 173.702C718.842 170.608 715.793 168.56 712.576 169.127C709.359 169.694 707.194 172.662 707.74 175.756C708.285 178.85 711.335 180.898 714.552 180.331Z" fill="#AA0808" fill-opacity="0.21"/>
<path d="M758.426 210.622C761.642 210.055 763.807 207.087 763.262 203.993C762.716 200.899 759.667 198.85 756.45 199.418C753.233 199.985 751.068 202.953 751.614 206.047C752.159 209.141 755.209 211.189 758.426 210.622Z" fill="#AA0808" fill-opacity="0.21"/>
<path d="M839.477 196.33C842.694 195.763 844.859 192.795 844.313 189.701C843.768 186.607 840.718 184.559 837.501 185.126C834.285 185.693 832.12 188.661 832.665 191.755C833.211 194.849 836.26 196.897 839.477 196.33Z" fill="#AA0808" fill-opacity="0.21"/>
<path d="M0.68633 44.03L0.116406 44.8112L40.8213 72.1499L49.8891 59.7207L72.3112 74.7807L91.8577 47.9884L138.689 79.4426L153.803 58.7265L200.35 89.9904L218.889 64.5791L266.739 96.7165L267.309 95.9353L218.656 63.2587L200.117 88.67L153.57 57.4067L138.457 78.1222L91.6249 46.6681L72.0784 73.4604L49.6563 58.4003L40.5886 70.83L0.68633 44.03Z" fill="#B1B0BB" fill-opacity="0.63"/>
<path d="M94.5516 53.331C97.7682 52.7638 99.9334 49.7959 99.3879 46.702C98.8423 43.6081 95.7926 41.5597 92.576 42.1269C89.3595 42.694 87.1942 45.6619 87.7398 48.7559C88.2853 51.8498 91.3351 53.8982 94.5516 53.331Z" fill="#AA0808" fill-opacity="0.21"/>
<path d="M138.426 83.6217C141.642 83.0546 143.807 80.0867 143.262 76.9927C142.716 73.8988 139.667 71.8504 136.45 72.4176C133.233 72.9848 131.068 75.9527 131.614 79.0466C132.159 82.1405 135.209 84.1889 138.426 83.6217Z" fill="#AA0808" fill-opacity="0.21"/>
<path d="M219.477 69.3302C222.694 68.763 224.859 65.7951 224.313 62.7012C223.768 59.6072 220.718 57.5589 217.501 58.126C214.285 58.6932 212.12 61.6611 212.665 64.7551C213.211 67.849 216.26 69.8974 219.477 69.3302Z" fill="#AA0808" fill-opacity="0.21"/>
</svg>
